<?xml version="1.0" encoding="UTF-8" standalone="no"?>
<!DOCTYPE svg PUBLIC "-//W3C//DTD SVG 1.1//EN"
 "http://www.w3.org/Graphics/SVG/1.1/DTD/svg11.dtd">
<!-- Generated by graphviz version 2.43.0 (0)
 -->
<!-- Title: G Pages: 1 -->
<svg width="765pt" height="3936pt"
 viewBox="0.00 0.00 765.00 3936.41" xmlns="http://www.w3.org/2000/svg" xmlns:xlink="http://www.w3.org/1999/xlink">
<g id="graph0" class="graph" transform="scale(1 1) rotate(0) translate(4 3932.41)">
<title>G</title>
<polygon fill="white" stroke="transparent" points="-4,4 -4,-3932.41 761,-3932.41 761,4 -4,4"/>
<g id="clust1" class="cluster">
<title>cluster_level_0</title>
<polygon fill="none" stroke="#999999" stroke-dasharray="5,2" points="32,-3804.49 32,-3920.41 563,-3920.41 563,-3804.49 32,-3804.49"/>
<text text-anchor="middle" x="297.5" y="-3905.21" font-family="Helvetica,sans-Serif" font-size="14.00" fill="#999999">level 0</text>
</g>
<g id="clust2" class="cluster">
<title>cluster_level_1</title>
<polygon fill="none" stroke="#999999" stroke-dasharray="5,2" points="327,-3710.49 327,-3785.49 397,-3785.49 397,-3710.49 327,-3710.49"/>
<text text-anchor="middle" x="362" y="-3770.29" font-family="Helvetica,sans-Serif" font-size="14.00" fill="#999999">level 1</text>
</g>
<g id="clust3" class="cluster">
<title>cluster_level_2</title>
<polygon fill="none" stroke="#999999" stroke-dasharray="5,2" points="340,-3616.49 340,-3691.49 440,-3691.49 440,-3616.49 340,-3616.49"/>
<text text-anchor="middle" x="390" y="-3676.29" font-family="Helvetica,sans-Serif" font-size="14.00" fill="#999999">level 2</text>
</g>
<g id="clust4" class="cluster">
<title>cluster_level_3</title>
<polygon fill="none" stroke="#999999" stroke-dasharray="5,2" points="362,-3522.49 362,-3597.49 444,-3597.49 444,-3522.49 362,-3522.49"/>
<text text-anchor="middle" x="403" y="-3582.29" font-family="Helvetica,sans-Serif" font-size="14.00" fill="#999999">level 3</text>
</g>
<g id="clust5" class="cluster">
<title>cluster_level_4</title>
<polygon fill="none" stroke="#999999" stroke-dasharray="5,2" points="401,-3428.49 401,-3503.49 511,-3503.49 511,-3428.49 401,-3428.49"/>
<text text-anchor="middle" x="456" y="-3488.29" font-family="Helvetica,sans-Serif" font-size="14.00" fill="#999999">level 4</text>
</g>
<g id="clust6" class="cluster">
<title>cluster_level_5</title>
<polygon fill="none" stroke="#999999" stroke-dasharray="5,2" points="304,-3326.49 304,-3409.49 608,-3409.49 608,-3326.49 304,-3326.49"/>
<text text-anchor="middle" x="456" y="-3394.29" font-family="Helvetica,sans-Serif" font-size="14.00" fill="#999999">level 5</text>
</g>
<g id="clust7" class="cluster">
<title>cluster_level_6</title>
<polygon fill="none" stroke="#999999" stroke-dasharray="5,2" points="348,-3205.95 348,-3307.49 426,-3307.49 426,-3205.95 348,-3205.95"/>
<text text-anchor="middle" x="387" y="-3292.29" font-family="Helvetica,sans-Serif" font-size="14.00" fill="#999999">level 6</text>
</g>
<g id="clust8" class="cluster">
<title>cluster_level_7</title>
<polygon fill="none" stroke="#999999" stroke-dasharray="5,2" points="315,-3111.95 315,-3186.95 415,-3186.95 415,-3111.95 315,-3111.95"/>
<text text-anchor="middle" x="365" y="-3171.75" font-family="Helvetica,sans-Serif" font-size="14.00" fill="#999999">level 7</text>
</g>
<g id="clust9" class="cluster">
<title>cluster_level_8</title>
<polygon fill="none" stroke="#999999" stroke-dasharray="5,2" points="368,-3009.45 368,-3092.95 430,-3092.95 430,-3009.45 368,-3009.45"/>
<text text-anchor="middle" x="399" y="-3077.75" font-family="Helvetica,sans-Serif" font-size="14.00" fill="#999999">level 8</text>
</g>
<g id="clust10" class="cluster">
<title>cluster_level_9</title>
<polygon fill="none" stroke="#999999" stroke-dasharray="5,2" points="361,-2915.45 361,-2990.45 437,-2990.45 437,-2915.45 361,-2915.45"/>
<text text-anchor="middle" x="399" y="-2975.25" font-family="Helvetica,sans-Serif" font-size="14.00" fill="#999999">level 9</text>
</g>
<g id="clust11" class="cluster">
<title>cluster_level_10</title>
<polygon fill="none" stroke="#999999" stroke-dasharray="5,2" points="355,-2821.45 355,-2896.45 443,-2896.45 443,-2821.45 355,-2821.45"/>
<text text-anchor="middle" x="399" y="-2881.25" font-family="Helvetica,sans-Serif" font-size="14.00" fill="#999999">level 10</text>
</g>
<g id="clust12" class="cluster">
<title>cluster_level_11</title>
<polygon fill="none" stroke="#999999" stroke-dasharray="5,2" points="361,-2727.45 361,-2802.45 437,-2802.45 437,-2727.45 361,-2727.45"/>
<text text-anchor="middle" x="399" y="-2787.25" font-family="Helvetica,sans-Serif" font-size="14.00" fill="#999999">level 11</text>
</g>
<g id="clust13" class="cluster">
<title>cluster_level_12</title>
<polygon fill="none" stroke="#999999" stroke-dasharray="5,2" points="344,-2633.45 344,-2708.45 454,-2708.45 454,-2633.45 344,-2633.45"/>
<text text-anchor="middle" x="399" y="-2693.25" font-family="Helvetica,sans-Serif" font-size="14.00" fill="#999999">level 12</text>
</g>
<g id="clust14" class="cluster">
<title>cluster_level_13</title>
<polygon fill="none" stroke="#999999" stroke-dasharray="5,2" points="304,-2511.45 304,-2614.45 494,-2614.45 494,-2511.45 304,-2511.45"/>
<text text-anchor="middle" x="399" y="-2599.25" font-family="Helvetica,sans-Serif" font-size="14.00" fill="#999999">level 13</text>
</g>
<g id="clust15" class="cluster">
<title>cluster_level_14</title>
<polygon fill="none" stroke="#999999" stroke-dasharray="5,2" points="360,-2417.45 360,-2492.45 438,-2492.45 438,-2417.45 360,-2417.45"/>
<text text-anchor="middle" x="399" y="-2477.25" font-family="Helvetica,sans-Serif" font-size="14.00" fill="#999999">level 14</text>
</g>
<g id="clust16" class="cluster">
<title>cluster_level_15</title>
<polygon fill="none" stroke="#999999" stroke-dasharray="5,2" points="304,-2271.45 304,-2398.45 494,-2398.45 494,-2271.45 304,-2271.45"/>
<text text-anchor="middle" x="399" y="-2383.25" font-family="Helvetica,sans-Serif" font-size="14.00" fill="#999999">level 15</text>
</g>
<g id="clust17" class="cluster">
<title>cluster_level_16</title>
<polygon fill="none" stroke="#999999" stroke-dasharray="5,2" points="304,-2149.45 304,-2252.45 494,-2252.45 494,-2149.45 304,-2149.45"/>
<text text-anchor="middle" x="399" y="-2237.25" font-family="Helvetica,sans-Serif" font-size="14.00" fill="#999999">level 16</text>
</g>
<g id="clust18" class="cluster">
<title>cluster_level_17</title>
<polygon fill="none" stroke="#999999" stroke-dasharray="5,2" points="304,-2027.45 304,-2130.45 494,-2130.45 494,-2027.45 304,-2027.45"/>
<text text-anchor="middle" x="399" y="-2115.25" font-family="Helvetica,sans-Serif" font-size="14.00" fill="#999999">level 17</text>
</g>
<g id="clust19" class="cluster">
<title>cluster_level_18</title>
<polygon fill="none" stroke="#999999" stroke-dasharray="5,2" points="360,-1933.45 360,-2008.45 438,-2008.45 438,-1933.45 360,-1933.45"/>
<text text-anchor="middle" x="399" y="-1993.25" font-family="Helvetica,sans-Serif" font-size="14.00" fill="#999999">level 18</text>
</g>
<g id="clust20" class="cluster">
<title>cluster_level_19</title>
<polygon fill="none" stroke="#999999" stroke-dasharray="5,2" points="354,-1839.45 354,-1914.45 444,-1914.45 444,-1839.45 354,-1839.45"/>
<text text-anchor="middle" x="399" y="-1899.25" font-family="Helvetica,sans-Serif" font-size="14.00" fill="#999999">level 19</text>
</g>
<g id="clust21" class="cluster">
<title>cluster_level_20</title>
<polygon fill="none" stroke="#999999" stroke-dasharray="5,2" points="333,-1745.45 333,-1820.45 465,-1820.45 465,-1745.45 333,-1745.45"/>
<text text-anchor="middle" x="399" y="-1805.25" font-family="Helvetica,sans-Serif" font-size="14.00" fill="#999999">level 20</text>
</g>
<g id="clust22" class="cluster">
<title>cluster_level_21</title>
<polygon fill="none" stroke="#999999" stroke-dasharray="5,2" points="348,-1651.45 348,-1726.45 450,-1726.45 450,-1651.45 348,-1651.45"/>
<text text-anchor="middle" x="399" y="-1711.25" font-family="Helvetica,sans-Serif" font-size="14.00" fill="#999999">level 21</text>
</g>
<g id="clust23" class="cluster">
<title>cluster_level_22</title>
<polygon fill="none" stroke="#999999" stroke-dasharray="5,2" points="361,-1557.45 361,-1632.45 437,-1632.45 437,-1557.45 361,-1557.45"/>
<text text-anchor="middle" x="399" y="-1617.25" font-family="Helvetica,sans-Serif" font-size="14.00" fill="#999999">level 22</text>
</g>
<g id="clust24" class="cluster">
<title>cluster_level_23</title>
<polygon fill="none" stroke="#999999" stroke-dasharray="5,2" points="335,-1463.45 335,-1538.45 463,-1538.45 463,-1463.45 335,-1463.45"/>
<text text-anchor="middle" x="399" y="-1523.25" font-family="Helvetica,sans-Serif" font-size="14.00" fill="#999999">level 23</text>
</g>
<g id="clust25" class="cluster">
<title>cluster_level_24</title>
<polygon fill="none" stroke="#999999" stroke-dasharray="5,2" points="345,-1369.45 345,-1444.45 453,-1444.45 453,-1369.45 345,-1369.45"/>
<text text-anchor="middle" x="399" y="-1429.25" font-family="Helvetica,sans-Serif" font-size="14.00" fill="#999999">level 24</text>
</g>
<g id="clust26" class="cluster">
<title>cluster_level_25</title>
<polygon fill="none" stroke="#999999" stroke-dasharray="5,2" points="355,-1275.45 355,-1350.45 443,-1350.45 443,-1275.45 355,-1275.45"/>
<text text-anchor="middle" x="399" y="-1335.25" font-family="Helvetica,sans-Serif" font-size="14.00" fill="#999999">level 25</text>
</g>
<g id="clust27" class="cluster">
<title>cluster_level_26</title>
<polygon fill="none" stroke="#999999" stroke-dasharray="5,2" points="343,-1181.45 343,-1256.45 455,-1256.45 455,-1181.45 343,-1181.45"/>
<text text-anchor="middle" x="399" y="-1241.25" font-family="Helvetica,sans-Serif" font-size="14.00" fill="#999999">level 26</text>
</g>
<g id="clust28" class="cluster">
<title>cluster_level_27</title>
<polygon fill="none" stroke="#999999" stroke-dasharray="5,2" points="349,-1079.45 349,-1162.45 449,-1162.45 449,-1079.45 349,-1079.45"/>
<text text-anchor="middle" x="399" y="-1147.25" font-family="Helvetica,sans-Serif" font-size="14.00" fill="#999999">level 27</text>
</g>
<g id="clust29" class="cluster">
<title>cluster_level_28</title>
<polygon fill="none" stroke="#999999" stroke-dasharray="5,2" points="176,-957.45 176,-1060.45 374,-1060.45 374,-957.45 176,-957.45"/>
<text text-anchor="middle" x="275" y="-1045.25" font-family="Helvetica,sans-Serif" font-size="14.00" fill="#999999">level 28</text>
</g>
<g id="clust30" class="cluster">
<title>cluster_level_29</title>
<polygon fill="none" stroke="#999999" stroke-dasharray="5,2" points="176,-835.45 176,-938.45 374,-938.45 374,-835.45 176,-835.45"/>
<text text-anchor="middle" x="275" y="-923.25" font-family="Helvetica,sans-Serif" font-size="14.00" fill="#999999">level 29</text>
</g>
<g id="clust31" class="cluster">
<title>cluster_level_30</title>
<polygon fill="none" stroke="#999999" stroke-dasharray="5,2" points="126,-741.45 126,-816.45 214,-816.45 214,-741.45 126,-741.45"/>
<text text-anchor="middle" x="170" y="-801.25" font-family="Helvetica,sans-Serif" font-size="14.00" fill="#999999">level 30</text>
</g>
<g id="clust32" class="cluster">
<title>cluster_level_31</title>
<polygon fill="none" stroke="#999999" stroke-dasharray="5,2" points="120,-647.45 120,-722.45 220,-722.45 220,-647.45 120,-647.45"/>
<text text-anchor="middle" x="170" y="-707.25" font-family="Helvetica,sans-Serif" font-size="14.00" fill="#999999">level 31</text>
</g>
<g id="clust33" class="cluster">
<title>cluster_level_32</title>
<polygon fill="none" stroke="#999999" stroke-dasharray="5,2" points="120,-553.45 120,-628.45 220,-628.45 220,-553.45 120,-553.45"/>
<text text-anchor="middle" x="170" y="-613.25" font-family="Helvetica,sans-Serif" font-size="14.00" fill="#999999">level 32</text>
</g>
<g id="clust34" class="cluster">
<title>cluster_level_33</title>
<polygon fill="none" stroke="#999999" stroke-dasharray="5,2" points="99,-459.45 99,-534.45 241,-534.45 241,-459.45 99,-459.45"/>
<text text-anchor="middle" x="170" y="-519.25" font-family="Helvetica,sans-Serif" font-size="14.00" fill="#999999">level 33</text>
</g>
<g id="clust35" class="cluster">
<title>cluster_level_34</title>
<polygon fill="none" stroke="#999999" stroke-dasharray="5,2" points="120,-365.45 120,-440.45 220,-440.45 220,-365.45 120,-365.45"/>
<text text-anchor="middle" x="170" y="-425.25" font-family="Helvetica,sans-Serif" font-size="14.00" fill="#999999">level 34</text>
</g>
<g id="clust36" class="cluster">
<title>cluster_level_35</title>
<polygon fill="none" stroke="#999999" stroke-dasharray="5,2" points="13,-263.45 13,-346.45 246,-346.45 246,-263.45 13,-263.45"/>
<text text-anchor="middle" x="129.5" y="-331.25" font-family="Helvetica,sans-Serif" font-size="14.00" fill="#999999">level 35</text>
</g>
<g id="clust37" class="cluster">
<title>cluster_level_36</title>
<polygon fill="none" stroke="#999999" stroke-dasharray="5,2" points="50,-142.91 50,-244.45 128,-244.45 128,-142.91 50,-142.91"/>
<text text-anchor="middle" x="89" y="-229.25" font-family="Helvetica,sans-Serif" font-size="14.00" fill="#999999">level 36</text>
</g>
<g id="clust38" class="cluster">
<title>cluster_level_37</title>
<polygon fill="none" stroke="#999999" stroke-dasharray="5,2" points="8,-8 8,-123.91 170,-123.91 170,-8 8,-8"/>
<text text-anchor="middle" x="89" y="-108.71" font-family="Helvetica,sans-Serif" font-size="14.00" fill="#999999">level 37</text>
</g>
<!-- linear_1 -->
<g id="node1" class="node">
<title>linear_1</title>
<polygon fill="#aed6f1" stroke="black" points="272.66,-3839.08 346,-3812.53 419.34,-3839.08 419.27,-3882.03 272.73,-3882.03 272.66,-3839.08"/>
<text text-anchor="middle" x="346" y="-3860.15" font-family="Helvetica,sans-Serif" font-size="11.00">linear</text>
<text text-anchor="middle" x="346" y="-3848.15" font-family="Helvetica,sans-Serif" font-size="11.00">#input</text>
<text text-anchor="middle" x="346" y="-3836.15" font-family="Helvetica,sans-Serif" font-size="11.00">[24 params]</text>
</g>
<!-- gelu_3 -->
<g id="node4" class="node">
<title>gelu_3</title>
<ellipse fill="#fdebd0" stroke="black" cx="362" cy="-3736.49" rx="27" ry="18"/>
<text text-anchor="middle" x="362" y="-3733.69" font-family="Helvetica,sans-Serif" font-size="11.00">gelu</text>
</g>
<!-- linear_1&#45;&gt;gelu_3 -->
<g id="edge1" class="edge">
<title>linear_1&#45;&gt;gelu_3</title>
<path fill="none" stroke="#2c3e50" d="M351.11,-3814.06C353.39,-3798.02 356.03,-3779.44 358.14,-3764.59"/>
<polygon fill="#2c3e50" stroke="#2c3e50" points="361.63,-3764.93 359.57,-3754.54 354.7,-3763.94 361.63,-3764.93"/>
</g>
<!-- gate_32 -->
<g id="node33" class="node">
<title>gate_32</title>
<polygon fill="#f5cba7" stroke="black" points="275,-1029.45 184,-997.45 275,-965.45 366,-997.45 275,-1029.45"/>
<text text-anchor="middle" x="275" y="-1000.65" font-family="Helvetica,sans-Serif" font-size="11.00">gate</text>
<text text-anchor="middle" x="275" y="-988.65" font-family="Helvetica,sans-Serif" font-size="11.00">[162 params]</text>
</g>
<!-- linear_1&#45;&gt;gate_32 -->
<g id="edge34" class="edge">
<title>linear_1&#45;&gt;gate_32</title>
<path fill="none" stroke="#2980b9" stroke-dasharray="5,2" d="M317.97,-3822.11C299.61,-3800.83 279,-3769.76 279,-3737.49 279,-3737.49 279,-3737.49 279,-1108.45 279,-1085.57 278.12,-1060.02 277.19,-1039.31"/>
<polygon fill="#2980b9" stroke="#2980b9" points="280.69,-1039.09 276.72,-1029.26 273.69,-1039.42 280.69,-1039.09"/>
<text text-anchor="middle" x="291.5" y="-2441.25" font-family="Helvetica,sans-Serif" font-size="9.00" fill="#2980b9">input</text>
</g>
<!-- input_ctx_2 -->
<g id="node2" class="node">
<title>input_ctx_2</title>
<polygon fill="#aed6f1" stroke="black" points="437.38,-3842.32 496,-3823.01 554.62,-3842.32 554.57,-3873.55 437.43,-3873.55 437.38,-3842.32"/>
<text text-anchor="middle" x="496" y="-3854.15" font-family="Helvetica,sans-Serif" font-size="11.00">input_ctx</text>
<text text-anchor="middle" x="496" y="-3842.15" font-family="Helvetica,sans-Serif" font-size="11.00">#ctx</text>
</g>
<!-- context_blend_6 -->
<g id="node7" class="node">
<title>context_blend_6</title>
<polygon fill="#eaecee" stroke="black" points="503,-3472.49 409,-3472.49 409,-3436.49 503,-3436.49 503,-3472.49"/>
<text text-anchor="middle" x="456" y="-3451.69" font-family="Helvetica,sans-Serif" font-size="11.00">context_blend</text>
</g>
<!-- input_ctx_2&#45;&gt;context_blend_6 -->
<g id="edge5" class="edge">
<title>input_ctx_2&#45;&gt;context_blend_6</title>
<path fill="none" stroke="#2980b9" stroke-dasharray="5,2" d="M489,-3825.16C483.24,-3802.52 476,-3768.03 476,-3737.49 476,-3737.49 476,-3737.49 476,-3547.49 476,-3525.12 470.28,-3500.36 464.96,-3482.17"/>
<polygon fill="#2980b9" stroke="#2980b9" points="468.28,-3481.08 462,-3472.55 461.59,-3483.13 468.28,-3481.08"/>
<text text-anchor="middle" x="483.5" y="-3640.29" font-family="Helvetica,sans-Serif" font-size="9.00" fill="#2980b9">ctx</text>
</g>
<!-- state_read_memory_35 -->
<g id="node3" class="node">
<title>state_read_memory_35</title>
<polygon fill="#f9e79f" stroke="black" points="147,-3868.95 39.69,-3850.95 147,-3832.95 254.31,-3850.95 147,-3868.95"/>
<text text-anchor="middle" x="147" y="-3848.15" font-family="Helvetica,sans-Serif" font-size="11.00">state_read_memory</text>
</g>
<!-- state_add_34 -->
<g id="node35" class="node">
<title>state_add_34</title>
<polygon fill="#eaecee" stroke="black" points="205.5,-785.45 134.5,-785.45 134.5,-749.45 205.5,-749.45 205.5,-785.45"/>
<text text-anchor="middle" x="170" y="-770.65" font-family="Helvetica,sans-Serif" font-size="11.00">state_add</text>
<text text-anchor="middle" x="170" y="-758.65" font-family="Helvetica,sans-Serif" font-size="11.00">#memory</text>
</g>
<!-- state_read_memory_35&#45;&gt;state_add_34 -->
<g id="edge38" class="edge">
<title>state_read_memory_35&#45;&gt;state_add_34</title>
<path fill="none" stroke="#2980b9" stroke-dasharray="5,2" d="M147.74,-3832.81C148.63,-3810.76 150,-3771.28 150,-3737.49 150,-3737.49 150,-3737.49 150,-874.45 150,-847.22 156.45,-816.72 162.03,-795.45"/>
<polygon fill="#2980b9" stroke="#2980b9" points="165.48,-796.09 164.75,-785.53 158.73,-794.25 165.48,-796.09"/>
<text text-anchor="middle" x="169" y="-2321.25" font-family="Helvetica,sans-Serif" font-size="9.00" fill="#2980b9">memory</text>
</g>
<!-- layernorm_4 -->
<g id="node5" class="node">
<title>layernorm_4</title>
<polygon fill="#d5f5e3" stroke="black" points="432,-3660.49 348,-3660.49 348,-3624.49 432,-3624.49 432,-3660.49"/>
<text text-anchor="middle" x="390" y="-3645.69" font-family="Helvetica,sans-Serif" font-size="11.00">layernorm</text>
<text text-anchor="middle" x="390" y="-3633.69" font-family="Helvetica,sans-Serif" font-size="11.00">[16 params]</text>
</g>
<!-- gelu_3&#45;&gt;layernorm_4 -->
<g id="edge2" class="edge">
<title>gelu_3&#45;&gt;layernorm_4</title>
<path fill="none" stroke="#2c3e50" d="M367.14,-3718.62C371.25,-3705.09 377.11,-3685.84 381.87,-3670.22"/>
<polygon fill="#2c3e50" stroke="#2c3e50" points="385.24,-3671.16 384.8,-3660.57 378.54,-3669.12 385.24,-3671.16"/>
</g>
<!-- rmsnorm_5 -->
<g id="node6" class="node">
<title>rmsnorm_5</title>
<polygon fill="#d5f5e3" stroke="black" points="436,-3566.49 370,-3566.49 370,-3530.49 436,-3530.49 436,-3566.49"/>
<text text-anchor="middle" x="403" y="-3545.69" font-family="Helvetica,sans-Serif" font-size="11.00">rmsnorm</text>
</g>
<!-- layernorm_4&#45;&gt;rmsnorm_5 -->
<g id="edge3" class="edge">
<title>layernorm_4&#45;&gt;rmsnorm_5</title>
<path fill="none" stroke="#2c3e50" d="M392.45,-3624.19C394.33,-3610.82 396.98,-3592.08 399.15,-3576.71"/>
<polygon fill="#2c3e50" stroke="#2c3e50" points="402.63,-3577.11 400.57,-3566.72 395.7,-3576.13 402.63,-3577.11"/>
</g>
<!-- rmsnorm_5&#45;&gt;context_blend_6 -->
<g id="edge4" class="edge">
<title>rmsnorm_5&#45;&gt;context_blend_6</title>
<path fill="none" stroke="#2c3e50" d="M412.97,-3530.19C420.89,-3516.44 432.09,-3496.99 441.08,-3481.39"/>
<polygon fill="#2c3e50" stroke="#2c3e50" points="444.12,-3483.13 446.08,-3472.72 438.05,-3479.64 444.12,-3483.13"/>
</g>
<!-- graph_8 -->
<g id="node8" class="node">
<title>graph_8</title>
<polygon fill="#eaecee" stroke="black" points="396,-3374.49 312,-3374.49 312,-3338.49 396,-3338.49 396,-3374.49"/>
<text text-anchor="middle" x="354" y="-3359.69" font-family="Helvetica,sans-Serif" font-size="11.00">graph</text>
<text text-anchor="middle" x="354" y="-3347.69" font-family="Helvetica,sans-Serif" font-size="11.00">[88 params]</text>
</g>
<!-- context_blend_6&#45;&gt;graph_8 -->
<g id="edge7" class="edge">
<title>context_blend_6&#45;&gt;graph_8</title>
<path fill="none" stroke="#2c3e50" d="M435.31,-3436.32C425.9,-3428.34 414.72,-3418.61 405,-3409.49 395.73,-3400.79 385.87,-3390.91 377.32,-3382.11"/>
<polygon fill="#2c3e50" stroke="#2c3e50" points="379.65,-3379.48 370.19,-3374.71 374.61,-3384.34 379.65,-3379.48"/>
</g>
<!-- graph_9 -->
<g id="node9" class="node">
<title>graph_9</title>
<polygon fill="#eaecee" stroke="black" points="498,-3374.49 414,-3374.49 414,-3338.49 498,-3338.49 498,-3374.49"/>
<text text-anchor="middle" x="456" y="-3359.69" font-family="Helvetica,sans-Serif" font-size="11.00">graph</text>
<text text-anchor="middle" x="456" y="-3347.69" font-family="Helvetica,sans-Serif" font-size="11.00">[88 params]</text>
</g>
<!-- context_blend_6&#45;&gt;graph_9 -->
<g id="edge8" class="edge">
<title>context_blend_6&#45;&gt;graph_9</title>
<path fill="none" stroke="#2c3e50" d="M456,-3436.33C456,-3422 456,-3401.3 456,-3384.71"/>
<polygon fill="#2c3e50" stroke="#2c3e50" points="459.5,-3384.51 456,-3374.51 452.5,-3384.51 459.5,-3384.51"/>
</g>
<!-- graph_7 -->
<g id="node10" class="node">
<title>graph_7</title>
<polygon fill="#eaecee" stroke="black" points="600,-3378.49 516,-3378.49 516,-3334.49 600,-3334.49 600,-3378.49"/>
<text text-anchor="middle" x="558" y="-3365.69" font-family="Helvetica,sans-Serif" font-size="11.00">graph</text>
<text text-anchor="middle" x="558" y="-3353.69" font-family="Helvetica,sans-Serif" font-size="11.00">#spectral</text>
<text text-anchor="middle" x="558" y="-3341.69" font-family="Helvetica,sans-Serif" font-size="11.00">[72 params]</text>
</g>
<!-- context_blend_6&#45;&gt;graph_7 -->
<g id="edge6" class="edge">
<title>context_blend_6&#45;&gt;graph_7</title>
<path fill="none" stroke="#2c3e50" d="M476.69,-3436.32C486.1,-3428.34 497.28,-3418.61 507,-3409.49 514.88,-3402.1 523.19,-3393.84 530.76,-3386.12"/>
<polygon fill="#2c3e50" stroke="#2c3e50" points="533.58,-3388.25 538.04,-3378.64 528.56,-3383.37 533.58,-3388.25"/>
</g>
<!-- merge_10 -->
<g id="node11" class="node">
<title>merge_10</title>
<ellipse fill="#d5dbdb" stroke="black" cx="387" cy="-3245.22" rx="31.04" ry="31.04"/>
<text text-anchor="middle" x="387" y="-3242.42" font-family="Helvetica,sans-Serif" font-size="11.00">merge</text>
</g>
<!-- graph_8&#45;&gt;merge_10 -->
<g id="edge9" class="edge">
<title>graph_8&#45;&gt;merge_10</title>
<path fill="none" stroke="#2c3e50" d="M359.16,-3338.42C363.44,-3324.24 369.7,-3303.51 375.2,-3285.3"/>
<polygon fill="#2c3e50" stroke="#2c3e50" points="378.62,-3286.09 378.16,-3275.5 371.91,-3284.07 378.62,-3286.09"/>
</g>
<!-- graph_9&#45;&gt;merge_10 -->
<g id="edge10" class="edge">
<title>graph_9&#45;&gt;merge_10</title>
<path fill="none" stroke="#2c3e50" d="M439.99,-3338.31C434.28,-3331.74 428.02,-3324.02 423,-3316.49 416.05,-3306.07 409.48,-3294.13 403.89,-3283.08"/>
<polygon fill="#2c3e50" stroke="#2c3e50" points="407.01,-3281.49 399.45,-3274.07 400.73,-3284.59 407.01,-3281.49"/>
</g>
<!-- linear_11 -->
<g id="node12" class="node">
<title>linear_11</title>
<polygon fill="#eaecee" stroke="black" points="407,-3155.95 323,-3155.95 323,-3119.95 407,-3119.95 407,-3155.95"/>
<text text-anchor="middle" x="365" y="-3141.15" font-family="Helvetica,sans-Serif" font-size="11.00">linear</text>
<text text-anchor="middle" x="365" y="-3129.15" font-family="Helvetica,sans-Serif" font-size="11.00">[72 params]</text>
</g>
<!-- merge_10&#45;&gt;linear_11 -->
<g id="edge11" class="edge">
<title>merge_10&#45;&gt;linear_11</title>
<path fill="none" stroke="#2c3e50" d="M380.75,-3214.34C377.59,-3199.17 373.76,-3180.89 370.68,-3166.13"/>
<polygon fill="#2c3e50" stroke="#2c3e50" points="374.05,-3165.17 368.58,-3156.1 367.2,-3166.6 374.05,-3165.17"/>
</g>
<!-- add_12 -->
<g id="node13" class="node">
<title>add_12</title>
<ellipse fill="#d5dbdb" stroke="black" cx="399" cy="-3039.7" rx="22.5" ry="22.5"/>
<text text-anchor="middle" x="399" y="-3036.9" font-family="Helvetica,sans-Serif" font-size="11.00">add</text>
</g>
<!-- merge_10&#45;&gt;add_12 -->
<g id="edge12" class="edge">
<title>merge_10&#45;&gt;add_12</title>
<path fill="none" stroke="#2c3e50" d="M404.63,-3219.19C410.4,-3209.57 416.07,-3198.2 419,-3186.95 429.28,-3147.47 419.04,-3100.52 409.82,-3070.67"/>
<polygon fill="#2c3e50" stroke="#2c3e50" points="413.06,-3069.3 406.64,-3060.87 406.4,-3071.46 413.06,-3069.3"/>
</g>
<!-- linear_11&#45;&gt;add_12 -->
<g id="edge13" class="edge">
<title>linear_11&#45;&gt;add_12</title>
<path fill="none" stroke="#2c3e50" d="M371.08,-3119.75C375.89,-3106.13 382.72,-3086.8 388.42,-3070.66"/>
<polygon fill="#2c3e50" stroke="#2c3e50" points="391.76,-3071.7 391.79,-3061.1 385.16,-3069.36 391.76,-3071.7"/>
</g>
<!-- dropout_13 -->
<g id="node14" class="node">
<title>dropout_13</title>
<polygon fill="#eaecee" stroke="black" points="428.5,-2959.45 369.5,-2959.45 369.5,-2923.45 428.5,-2923.45 428.5,-2959.45"/>
<text text-anchor="middle" x="399" y="-2938.65" font-family="Helvetica,sans-Serif" font-size="11.00">dropout</text>
</g>
<!-- add_12&#45;&gt;dropout_13 -->
<g id="edge14" class="edge">
<title>add_12&#45;&gt;dropout_13</title>
<path fill="none" stroke="#2c3e50" d="M399,-3017.34C399,-3003.35 399,-2984.93 399,-2969.86"/>
<polygon fill="#2c3e50" stroke="#2c3e50" points="402.5,-2969.59 399,-2959.59 395.5,-2969.59 402.5,-2969.59"/>
</g>
<!-- softclamp_14 -->
<g id="node15" class="node">
<title>softclamp_14</title>
<polygon fill="#eaecee" stroke="black" points="434.5,-2865.45 363.5,-2865.45 363.5,-2829.45 434.5,-2829.45 434.5,-2865.45"/>
<text text-anchor="middle" x="399" y="-2844.65" font-family="Helvetica,sans-Serif" font-size="11.00">softclamp</text>
</g>
<!-- dropout_13&#45;&gt;softclamp_14 -->
<g id="edge15" class="edge">
<title>dropout_13&#45;&gt;softclamp_14</title>
<path fill="none" stroke="#2c3e50" d="M399,-2923.15C399,-2909.91 399,-2891.4 399,-2876.12"/>
<polygon fill="#2c3e50" stroke="#2c3e50" points="402.5,-2875.68 399,-2865.68 395.5,-2875.68 402.5,-2875.68"/>
</g>
<!-- softplus_15 -->
<g id="node16" class="node">
<title>softplus_15</title>
<polygon fill="#eaecee" stroke="black" points="429,-2771.45 369,-2771.45 369,-2735.45 429,-2735.45 429,-2771.45"/>
<text text-anchor="middle" x="399" y="-2750.65" font-family="Helvetica,sans-Serif" font-size="11.00">softplus</text>
</g>
<!-- softclamp_14&#45;&gt;softplus_15 -->
<g id="edge16" class="edge">
<title>softclamp_14&#45;&gt;softplus_15</title>
<path fill="none" stroke="#2c3e50" d="M399,-2829.15C399,-2815.91 399,-2797.4 399,-2782.12"/>
<polygon fill="#2c3e50" stroke="#2c3e50" points="402.5,-2781.68 399,-2771.68 395.5,-2781.68 402.5,-2781.68"/>
</g>
<!-- variance_gate_16 -->
<g id="node17" class="node">
<title>variance_gate_16</title>
<polygon fill="#eaecee" stroke="black" points="446,-2677.45 352,-2677.45 352,-2641.45 446,-2641.45 446,-2677.45"/>
<text text-anchor="middle" x="399" y="-2656.65" font-family="Helvetica,sans-Serif" font-size="11.00">variance_gate</text>
</g>
<!-- softplus_15&#45;&gt;variance_gate_16 -->
<g id="edge17" class="edge">
<title>softplus_15&#45;&gt;variance_gate_16</title>
<path fill="none" stroke="#2c3e50" d="M399,-2735.15C399,-2721.91 399,-2703.4 399,-2688.12"/>
<polygon fill="#2c3e50" stroke="#2c3e50" points="402.5,-2687.68 399,-2677.68 395.5,-2687.68 402.5,-2687.68"/>
</g>
<!-- map_17 -->
<g id="node18" class="node">
<title>map_17</title>
<polygon fill="#a9cce3" stroke="black" points="486.17,-2583.45 347.5,-2583.45 311.83,-2519.45 450.5,-2519.45 486.17,-2583.45"/>
<text text-anchor="middle" x="399" y="-2554.65" font-family="Helvetica,sans-Serif" font-size="11.00">map</text>
<text text-anchor="middle" x="399" y="-2542.65" font-family="Helvetica,sans-Serif" font-size="11.00">[10 params]</text>
</g>
<!-- variance_gate_16&#45;&gt;map_17 -->
<g id="edge18" class="edge">
<title>variance_gate_16&#45;&gt;map_17</title>
<path fill="none" stroke="#2c3e50" d="M399,-2641.42C399,-2628.53 399,-2610.26 399,-2593.63"/>
<polygon fill="#2c3e50" stroke="#2c3e50" points="402.5,-2593.55 399,-2583.55 395.5,-2593.55 402.5,-2593.55"/>
</g>
<!-- reshape_18 -->
<g id="node19" class="node">
<title>reshape_18</title>
<polygon fill="#eaecee" stroke="black" points="429.5,-2461.45 368.5,-2461.45 368.5,-2425.45 429.5,-2425.45 429.5,-2461.45"/>
<text text-anchor="middle" x="399" y="-2440.65" font-family="Helvetica,sans-Serif" font-size="11.00">reshape</text>
</g>
<!-- map_17&#45;&gt;reshape_18 -->
<g id="edge19" class="edge">
<title>map_17&#45;&gt;reshape_18</title>
<path fill="none" stroke="#2c3e50" d="M399,-2519.22C399,-2504.24 399,-2486.43 399,-2471.96"/>
<polygon fill="#2c3e50" stroke="#2c3e50" points="402.5,-2471.65 399,-2461.65 395.5,-2471.65 402.5,-2471.65"/>
</g>
<!-- map_19 -->
<g id="node20" class="node">
<title>map_19</title>
<polygon fill="#a9cce3" stroke="black" points="486.17,-2367.45 347.5,-2367.45 311.83,-2279.45 450.5,-2279.45 486.17,-2367.45"/>
<text text-anchor="middle" x="399" y="-2332.65" font-family="Helvetica,sans-Serif" font-size="11.00">map</text>
<text text-anchor="middle" x="399" y="-2320.65" font-family="Helvetica,sans-Serif" font-size="11.00">#halves</text>
<text text-anchor="middle" x="399" y="-2308.65" font-family="Helvetica,sans-Serif" font-size="11.00">[20 params]</text>
</g>
<!-- reshape_18&#45;&gt;map_19 -->
<g id="edge20" class="edge">
<title>reshape_18&#45;&gt;map_19</title>
<path fill="none" stroke="#2c3e50" d="M399,-2425.3C399,-2412.69 399,-2394.82 399,-2377.62"/>
<polygon fill="#2c3e50" stroke="#2c3e50" points="402.5,-2377.62 399,-2367.62 395.5,-2377.62 402.5,-2377.62"/>
</g>
<!-- map_20 -->
<g id="node21" class="node">
<title>map_20</title>
<polygon fill="#a9cce3" stroke="black" points="486.17,-2221.45 347.5,-2221.45 311.83,-2157.45 450.5,-2157.45 486.17,-2221.45"/>
<text text-anchor="middle" x="399" y="-2192.65" font-family="Helvetica,sans-Serif" font-size="11.00">map</text>
<text text-anchor="middle" x="399" y="-2180.65" font-family="Helvetica,sans-Serif" font-size="11.00">[20 params]</text>
</g>
<!-- map_19&#45;&gt;map_20 -->
<g id="edge21" class="edge">
<title>map_19&#45;&gt;map_20</title>
<path fill="none" stroke="#2c3e50" d="M399,-2279.23C399,-2263.96 399,-2246.83 399,-2231.72"/>
<polygon fill="#2c3e50" stroke="#2c3e50" points="402.5,-2231.64 399,-2221.64 395.5,-2231.64 402.5,-2231.64"/>
</g>
<!-- map_21 -->
<g id="node22" class="node">
<title>map_21</title>
<polygon fill="#a9cce3" stroke="black" points="486.17,-2099.45 347.5,-2099.45 311.83,-2035.45 450.5,-2035.45 486.17,-2099.45"/>
<text text-anchor="middle" x="399" y="-2070.65" font-family="Helvetica,sans-Serif" font-size="11.00">map</text>
<text text-anchor="middle" x="399" y="-2058.65" font-family="Helvetica,sans-Serif" font-size="11.00">[20 params]</text>
</g>
<!-- map_20&#45;&gt;map_21 -->
<g id="edge22" class="edge">
<title>map_20&#45;&gt;map_21</title>
<path fill="none" stroke="#2c3e50" d="M399,-2157.24C399,-2142.79 399,-2125.43 399,-2109.91"/>
<polygon fill="#2c3e50" stroke="#2c3e50" points="402.5,-2109.51 399,-2099.51 395.5,-2109.51 402.5,-2109.51"/>
</g>
<!-- reshape_22 -->
<g id="node23" class="node">
<title>reshape_22</title>
<polygon fill="#eaecee" stroke="black" points="429.5,-1977.45 368.5,-1977.45 368.5,-1941.45 429.5,-1941.45 429.5,-1977.45"/>
<text text-anchor="middle" x="399" y="-1956.65" font-family="Helvetica,sans-Serif" font-size="11.00">reshape</text>
</g>
<!-- map_21&#45;&gt;reshape_22 -->
<g id="edge23" class="edge">
<title>map_21&#45;&gt;reshape_22</title>
<path fill="none" stroke="#2c3e50" d="M399,-2035.22C399,-2020.24 399,-2002.43 399,-1987.96"/>
<polygon fill="#2c3e50" stroke="#2c3e50" points="402.5,-1987.65 399,-1977.65 395.5,-1987.65 402.5,-1987.65"/>
</g>
<!-- shape_ops_23 -->
<g id="node24" class="node">
<title>shape_ops_23</title>
<polygon fill="#eaecee" stroke="black" points="436,-1883.45 362,-1883.45 362,-1847.45 436,-1847.45 436,-1883.45"/>
<text text-anchor="middle" x="399" y="-1862.65" font-family="Helvetica,sans-Serif" font-size="11.00">shape_ops</text>
</g>
<!-- reshape_22&#45;&gt;shape_ops_23 -->
<g id="edge24" class="edge">
<title>reshape_22&#45;&gt;shape_ops_23</title>
<path fill="none" stroke="#2c3e50" d="M399,-1941.15C399,-1927.91 399,-1909.4 399,-1894.12"/>
<polygon fill="#2c3e50" stroke="#2c3e50" points="402.5,-1893.68 399,-1883.68 395.5,-1893.68 402.5,-1893.68"/>
</g>
<!-- neg_sigmoid_gate_24 -->
<g id="node25" class="node">
<title>neg_sigmoid_gate_24</title>
<polygon fill="#eaecee" stroke="black" points="456.5,-1789.45 341.5,-1789.45 341.5,-1753.45 456.5,-1753.45 456.5,-1789.45"/>
<text text-anchor="middle" x="399" y="-1768.65" font-family="Helvetica,sans-Serif" font-size="11.00">neg_sigmoid_gate</text>
</g>
<!-- shape_ops_23&#45;&gt;neg_sigmoid_gate_24 -->
<g id="edge25" class="edge">
<title>shape_ops_23&#45;&gt;neg_sigmoid_gate_24</title>
<path fill="none" stroke="#2c3e50" d="M399,-1847.15C399,-1833.91 399,-1815.4 399,-1800.12"/>
<polygon fill="#2c3e50" stroke="#2c3e50" points="402.5,-1799.68 399,-1789.68 395.5,-1799.68 402.5,-1799.68"/>
</g>
<!-- transpose_rt_25 -->
<g id="node26" class="node">
<title>transpose_rt_25</title>
<polygon fill="#eaecee" stroke="black" points="442,-1695.45 356,-1695.45 356,-1659.45 442,-1659.45 442,-1695.45"/>
<text text-anchor="middle" x="399" y="-1674.65" font-family="Helvetica,sans-Serif" font-size="11.00">transpose_rt</text>
</g>
<!-- neg_sigmoid_gate_24&#45;&gt;transpose_rt_25 -->
<g id="edge26" class="edge">
<title>neg_sigmoid_gate_24&#45;&gt;transpose_rt_25</title>
<path fill="none" stroke="#2c3e50" d="M399,-1753.15C399,-1739.91 399,-1721.4 399,-1706.12"/>
<polygon fill="#2c3e50" stroke="#2c3e50" points="402.5,-1705.68 399,-1695.68 395.5,-1705.68 402.5,-1705.68"/>
</g>
<!-- counter_26 -->
<g id="node27" class="node">
<title>counter_26</title>
<polygon fill="#eaecee" stroke="black" points="428.5,-1601.45 369.5,-1601.45 369.5,-1565.45 428.5,-1565.45 428.5,-1601.45"/>
<text text-anchor="middle" x="399" y="-1580.65" font-family="Helvetica,sans-Serif" font-size="11.00">counter</text>
</g>
<!-- transpose_rt_25&#45;&gt;counter_26 -->
<g id="edge27" class="edge">
<title>transpose_rt_25&#45;&gt;counter_26</title>
<path fill="none" stroke="#2c3e50" d="M399,-1659.15C399,-1645.91 399,-1627.4 399,-1612.12"/>
<polygon fill="#2c3e50" stroke="#2c3e50" points="402.5,-1611.68 399,-1601.68 395.5,-1611.68 402.5,-1611.68"/>
</g>
<!-- chunk_recombine_27 -->
<g id="node28" class="node">
<title>chunk_recombine_27</title>
<polygon fill="#eaecee" stroke="black" points="455,-1507.45 343,-1507.45 343,-1471.45 455,-1471.45 455,-1507.45"/>
<text text-anchor="middle" x="399" y="-1486.65" font-family="Helvetica,sans-Serif" font-size="11.00">chunk_recombine</text>
</g>
<!-- counter_26&#45;&gt;chunk_recombine_27 -->
<g id="edge28" class="edge">
<title>counter_26&#45;&gt;chunk_recombine_27</title>
<path fill="none" stroke="#2c3e50" d="M399,-1565.15C399,-1551.91 399,-1533.4 399,-1518.12"/>
<polygon fill="#2c3e50" stroke="#2c3e50" points="402.5,-1517.68 399,-1507.68 395.5,-1517.68 402.5,-1517.68"/>
</g>
<!-- attention_ops_28 -->
<g id="node29" class="node">
<title>attention_ops_28</title>
<polygon fill="#eaecee" stroke="black" points="445,-1413.45 353,-1413.45 353,-1377.45 445,-1377.45 445,-1413.45"/>
<text text-anchor="middle" x="399" y="-1392.65" font-family="Helvetica,sans-Serif" font-size="11.00">attention_ops</text>
</g>
<!-- chunk_recombine_27&#45;&gt;attention_ops_28 -->
<g id="edge29" class="edge">
<title>chunk_recombine_27&#45;&gt;attention_ops_28</title>
<path fill="none" stroke="#2c3e50" d="M399,-1471.15C399,-1457.91 399,-1439.4 399,-1424.12"/>
<polygon fill="#2c3e50" stroke="#2c3e50" points="402.5,-1423.68 399,-1413.68 395.5,-1423.68 402.5,-1423.68"/>
</g>
<!-- topk_filter_29 -->
<g id="node30" class="node">
<title>topk_filter_29</title>
<polygon fill="#eaecee" stroke="black" points="434.5,-1319.45 363.5,-1319.45 363.5,-1283.45 434.5,-1283.45 434.5,-1319.45"/>
<text text-anchor="middle" x="399" y="-1298.65" font-family="Helvetica,sans-Serif" font-size="11.00">topk_filter</text>
</g>
<!-- attention_ops_28&#45;&gt;topk_filter_29 -->
<g id="edge30" class="edge">
<title>attention_ops_28&#45;&gt;topk_filter_29</title>
<path fill="none" stroke="#2c3e50" d="M399,-1377.15C399,-1363.91 399,-1345.4 399,-1330.12"/>
<polygon fill="#2c3e50" stroke="#2c3e50" points="402.5,-1329.68 399,-1319.68 395.5,-1329.68 402.5,-1329.68"/>
</g>
<!-- repeat_narrow_30 -->
<g id="node31" class="node">
<title>repeat_narrow_30</title>
<polygon fill="#eaecee" stroke="black" points="447,-1225.45 351,-1225.45 351,-1189.45 447,-1189.45 447,-1225.45"/>
<text text-anchor="middle" x="399" y="-1204.65" font-family="Helvetica,sans-Serif" font-size="11.00">repeat_narrow</text>
</g>
<!-- topk_filter_29&#45;&gt;repeat_narrow_30 -->
<g id="edge31" class="edge">
<title>topk_filter_29&#45;&gt;repeat_narrow_30</title>
<path fill="none" stroke="#2c3e50" d="M399,-1283.15C399,-1269.91 399,-1251.4 399,-1236.12"/>
<polygon fill="#2c3e50" stroke="#2c3e50" points="402.5,-1235.68 399,-1225.68 395.5,-1235.68 402.5,-1235.68"/>
</g>
<!-- loop_31 -->
<g id="node32" class="node">
<title>loop_31</title>
<polygon fill="#d7bde2" stroke="black" points="441,-1131.45 361,-1131.45 357,-1127.45 357,-1087.45 437,-1087.45 441,-1091.45 441,-1131.45"/>
<polyline fill="none" stroke="black" points="437,-1127.45 357,-1127.45 "/>
<polyline fill="none" stroke="black" points="437,-1127.45 437,-1087.45 "/>
<polyline fill="none" stroke="black" points="437,-1127.45 441,-1131.45 "/>
<text text-anchor="middle" x="399" y="-1118.65" font-family="Helvetica,sans-Serif" font-size="11.00">loop</text>
<text text-anchor="middle" x="399" y="-1106.65" font-family="Helvetica,sans-Serif" font-size="11.00">#refined</text>
<text text-anchor="middle" x="399" y="-1094.65" font-family="Helvetica,sans-Serif" font-size="11.00">[88 params]</text>
</g>
<!-- repeat_narrow_30&#45;&gt;loop_31 -->
<g id="edge32" class="edge">
<title>repeat_narrow_30&#45;&gt;loop_31</title>
<path fill="none" stroke="#2c3e50" d="M399,-1189.29C399,-1176.15 399,-1157.65 399,-1141.87"/>
<polygon fill="#2c3e50" stroke="#2c3e50" points="402.5,-1141.49 399,-1131.49 395.5,-1141.49 402.5,-1141.49"/>
</g>
<!-- loop_31&#45;&gt;gate_32 -->
<g id="edge33" class="edge">
<title>loop_31&#45;&gt;gate_32</title>
<path fill="none" stroke="#2c3e50" d="M375.09,-1087.24C355.91,-1070.23 328.79,-1046.17 307.62,-1027.39"/>
<polygon fill="#2c3e50" stroke="#2c3e50" points="309.92,-1024.75 300.11,-1020.73 305.27,-1029.99 309.92,-1024.75"/>
</g>
<!-- switch_33 -->
<g id="node34" class="node">
<title>switch_33</title>
<polygon fill="#f5cba7" stroke="black" points="275,-907.45 184,-875.45 275,-843.45 366,-875.45 275,-907.45"/>
<text text-anchor="middle" x="275" y="-878.65" font-family="Helvetica,sans-Serif" font-size="11.00">switch</text>
<text text-anchor="middle" x="275" y="-866.65" font-family="Helvetica,sans-Serif" font-size="11.00">[160 params]</text>
</g>
<!-- loop_31&#45;&gt;switch_33 -->
<g id="edge36" class="edge">
<title>loop_31&#45;&gt;switch_33</title>
<path fill="none" stroke="#2980b9" stroke-dasharray="5,2" d="M400.82,-1087.35C402.47,-1056.64 401.73,-998.77 378,-957.45 364.31,-933.61 340.59,-914.23 319.36,-900.41"/>
<polygon fill="#2980b9" stroke="#2980b9" points="321.1,-897.37 310.76,-895.02 317.38,-903.3 321.1,-897.37"/>
<text text-anchor="middle" x="417.5" y="-995.25" font-family="Helvetica,sans-Serif" font-size="9.00" fill="#2980b9">refined</text>
</g>
<!-- gate_32&#45;&gt;switch_33 -->
<g id="edge35" class="edge">
<title>gate_32&#45;&gt;switch_33</title>
<path fill="none" stroke="#2c3e50" d="M275,-965.24C275,-950.79 275,-933.43 275,-917.91"/>
<polygon fill="#2c3e50" stroke="#2c3e50" points="278.5,-917.51 275,-907.51 271.5,-917.51 278.5,-917.51"/>
</g>
<!-- switch_33&#45;&gt;state_add_34 -->
<g id="edge37" class="edge">
<title>switch_33&#45;&gt;state_add_34</title>
<path fill="none" stroke="#2c3e50" d="M252.22,-851.45C235.01,-834.08 211.46,-810.31 193.97,-792.65"/>
<polygon fill="#2c3e50" stroke="#2c3e50" points="196.41,-790.14 186.88,-785.5 191.43,-795.07 196.41,-790.14"/>
</g>
<!-- loop_36 -->
<g id="node36" class="node">
<title>loop_36</title>
<polygon fill="#d7bde2" stroke="black" points="212,-691.45 132,-691.45 128,-687.45 128,-655.45 208,-655.45 212,-659.45 212,-691.45"/>
<polyline fill="none" stroke="black" points="208,-687.45 128,-687.45 "/>
<polyline fill="none" stroke="black" points="208,-687.45 208,-655.45 "/>
<polyline fill="none" stroke="black" points="208,-687.45 212,-691.45 "/>
<text text-anchor="middle" x="170" y="-676.65" font-family="Helvetica,sans-Serif" font-size="11.00">loop</text>
<text text-anchor="middle" x="170" y="-664.65" font-family="Helvetica,sans-Serif" font-size="11.00">[72 params]</text>
</g>
<!-- state_add_34&#45;&gt;loop_36 -->
<g id="edge39" class="edge">
<title>state_add_34&#45;&gt;loop_36</title>
<path fill="none" stroke="#2c3e50" d="M170,-749.15C170,-735.91 170,-717.4 170,-702.12"/>
<polygon fill="#2c3e50" stroke="#2c3e50" points="173.5,-701.68 170,-691.68 166.5,-701.68 173.5,-701.68"/>
</g>
<!-- state_read_state_add_34 -->
<g id="node44" class="node">
<title>state_read_state_add_34</title>
<ellipse fill="lightgrey" stroke="black" cx="665" cy="-3850.95" rx="92.01" ry="18"/>
<text text-anchor="middle" x="665" y="-3848.15" font-family="Helvetica,sans-Serif" font-size="11.00">state_read_state_add_34</text>
</g>
<!-- state_add_34&#45;&gt;state_read_state_add_34 -->
<g id="edge48" class="edge">
<title>state_add_34&#45;&gt;state_read_state_add_34</title>
<path fill="none" stroke="#e67e22" stroke-dasharray="1,5" d="M205.76,-771.48C250.81,-777.03 328.34,-792.54 378,-835.45 463.84,-909.64 441.75,-966.56 453,-1079.45 565.94,-2212.42 650.83,-3611.29 663.39,-3822.68"/>
<polygon fill="#e67e22" stroke="#e67e22" points="659.91,-3823.1 664,-3832.88 666.9,-3822.69 659.91,-3823.1"/>
<text text-anchor="middle" x="577.5" y="-2321.25" font-family="Helvetica,sans-Serif" font-size="9.00" fill="#e67e22">state</text>
</g>
<!-- loop_37 -->
<g id="node37" class="node">
<title>loop_37</title>
<polygon fill="#d7bde2" stroke="black" points="212,-597.45 132,-597.45 128,-593.45 128,-561.45 208,-561.45 212,-565.45 212,-597.45"/>
<polyline fill="none" stroke="black" points="208,-593.45 128,-593.45 "/>
<polyline fill="none" stroke="black" points="208,-593.45 208,-561.45 "/>
<polyline fill="none" stroke="black" points="208,-593.45 212,-597.45 "/>
<text text-anchor="middle" x="170" y="-582.65" font-family="Helvetica,sans-Serif" font-size="11.00">loop</text>
<text text-anchor="middle" x="170" y="-570.65" font-family="Helvetica,sans-Serif" font-size="11.00">[81 params]</text>
</g>
<!-- loop_36&#45;&gt;loop_37 -->
<g id="edge40" class="edge">
<title>loop_36&#45;&gt;loop_37</title>
<path fill="none" stroke="#2c3e50" d="M170,-655.15C170,-641.91 170,-623.4 170,-608.12"/>
<polygon fill="#2c3e50" stroke="#2c3e50" points="173.5,-607.68 170,-597.68 166.5,-607.68 173.5,-607.68"/>
</g>
<!-- log_softmax_reduce_38 -->
<g id="node38" class="node">
<title>log_softmax_reduce_38</title>
<polygon fill="#eaecee" stroke="black" points="233,-503.45 107,-503.45 107,-467.45 233,-467.45 233,-503.45"/>
<text text-anchor="middle" x="170" y="-482.65" font-family="Helvetica,sans-Serif" font-size="11.00">log_softmax_reduce</text>
</g>
<!-- loop_37&#45;&gt;log_softmax_reduce_38 -->
<g id="edge41" class="edge">
<title>loop_37&#45;&gt;log_softmax_reduce_38</title>
<path fill="none" stroke="#2c3e50" d="M170,-561.15C170,-547.91 170,-529.4 170,-514.12"/>
<polygon fill="#2c3e50" stroke="#2c3e50" points="173.5,-513.68 170,-503.68 166.5,-513.68 173.5,-513.68"/>
</g>
<!-- linear_39 -->
<g id="node39" class="node">
<title>linear_39</title>
<polygon fill="#eaecee" stroke="black" points="212,-409.45 128,-409.45 128,-373.45 212,-373.45 212,-409.45"/>
<text text-anchor="middle" x="170" y="-394.65" font-family="Helvetica,sans-Serif" font-size="11.00">linear</text>
<text text-anchor="middle" x="170" y="-382.65" font-family="Helvetica,sans-Serif" font-size="11.00">[16 params]</text>
</g>
<!-- log_softmax_reduce_38&#45;&gt;linear_39 -->
<g id="edge42" class="edge">
<title>log_softmax_reduce_38&#45;&gt;linear_39</title>
<path fill="none" stroke="#2c3e50" d="M170,-467.15C170,-453.91 170,-435.4 170,-420.12"/>
<polygon fill="#2c3e50" stroke="#2c3e50" points="173.5,-419.68 170,-409.68 166.5,-419.68 173.5,-419.68"/>
</g>
<!-- linear_41 -->
<g id="node40" class="node">
<title>linear_41</title>
<polygon fill="#eaecee" stroke="black" points="120.5,-315.45 21.5,-315.45 21.5,-271.45 120.5,-271.45 120.5,-315.45"/>
<text text-anchor="middle" x="71" y="-302.65" font-family="Helvetica,sans-Serif" font-size="11.00">linear</text>
<text text-anchor="middle" x="71" y="-290.65" font-family="Helvetica,sans-Serif" font-size="11.00">#final_heads_1</text>
<text text-anchor="middle" x="71" y="-278.65" font-family="Helvetica,sans-Serif" font-size="11.00">[72 params]</text>
</g>
<!-- linear_39&#45;&gt;linear_41 -->
<g id="edge44" class="edge">
<title>linear_39&#45;&gt;linear_41</title>
<path fill="none" stroke="#2c3e50" d="M152.3,-373.29C137.83,-359.26 117.08,-339.13 100.16,-322.73"/>
<polygon fill="#2c3e50" stroke="#2c3e50" points="102.31,-319.94 92.69,-315.49 97.43,-324.96 102.31,-319.94"/>
</g>
<!-- linear_40 -->
<g id="node41" class="node">
<title>linear_40</title>
<polygon fill="#eaecee" stroke="black" points="237.5,-315.45 138.5,-315.45 138.5,-271.45 237.5,-271.45 237.5,-315.45"/>
<text text-anchor="middle" x="188" y="-302.65" font-family="Helvetica,sans-Serif" font-size="11.00">linear</text>
<text text-anchor="middle" x="188" y="-290.65" font-family="Helvetica,sans-Serif" font-size="11.00">#final_heads_0</text>
<text text-anchor="middle" x="188" y="-278.65" font-family="Helvetica,sans-Serif" font-size="11.00">[72 params]</text>
</g>
<!-- linear_39&#45;&gt;linear_40 -->
<g id="edge43" class="edge">
<title>linear_39&#45;&gt;linear_40</title>
<path fill="none" stroke="#2c3e50" d="M173.22,-373.29C175.71,-360.02 179.22,-341.29 182.19,-325.42"/>
<polygon fill="#2c3e50" stroke="#2c3e50" points="185.65,-325.96 184.06,-315.49 178.77,-324.67 185.65,-325.96"/>
</g>
<!-- merge_42 -->
<g id="node42" class="node">
<title>merge_42</title>
<ellipse fill="#d5dbdb" stroke="black" cx="89" cy="-182.18" rx="31.04" ry="31.04"/>
<text text-anchor="middle" x="89" y="-179.38" font-family="Helvetica,sans-Serif" font-size="11.00">merge</text>
</g>
<!-- linear_41&#45;&gt;merge_42 -->
<g id="edge46" class="edge">
<title>linear_41&#45;&gt;merge_42</title>
<path fill="none" stroke="#2c3e50" d="M74.47,-271.39C76.72,-257.72 79.72,-239.49 82.42,-223.15"/>
<polygon fill="#2c3e50" stroke="#2c3e50" points="85.87,-223.71 84.04,-213.28 78.96,-222.58 85.87,-223.71"/>
</g>
<!-- linear_40&#45;&gt;merge_42 -->
<g id="edge45" class="edge">
<title>linear_40&#45;&gt;merge_42</title>
<path fill="none" stroke="#2c3e50" d="M168.91,-271.39C154.06,-255 133.26,-232.03 116.6,-213.64"/>
<polygon fill="#2c3e50" stroke="#2c3e50" points="119.05,-211.13 109.74,-206.07 113.86,-215.83 119.05,-211.13"/>
</g>
<!-- linear_43 -->
<g id="node43" class="node">
<title>linear_43</title>
<polygon fill="#a9dfbf" stroke="black" points="162.34,-66.33 89,-92.87 15.66,-66.33 15.73,-23.38 162.27,-23.38 162.34,-66.33"/>
<text text-anchor="middle" x="89" y="-63.66" font-family="Helvetica,sans-Serif" font-size="11.00">linear</text>
<text text-anchor="middle" x="89" y="-51.66" font-family="Helvetica,sans-Serif" font-size="11.00">#output</text>
<text text-anchor="middle" x="89" y="-39.66" font-family="Helvetica,sans-Serif" font-size="11.00">[18 params]</text>
</g>
<!-- merge_42&#45;&gt;linear_43 -->
<g id="edge47" class="edge">
<title>merge_42&#45;&gt;linear_43</title>
<path fill="none" stroke="#2c3e50" d="M89,-150.75C89,-136.56 89,-119.34 89,-103.46"/>
<polygon fill="#2c3e50" stroke="#2c3e50" points="92.5,-103.26 89,-93.26 85.5,-103.26 92.5,-103.26"/>
</g>
</g>
</svg>
