<?xml version="1.0" encoding="UTF-8" standalone="no"?>
<!DOCTYPE svg PUBLIC "-//W3C//DTD SVG 1.1//EN"
 "http://www.w3.org/Graphics/SVG/1.1/DTD/svg11.dtd">
<!-- Generated by graphviz version 2.43.0 (0)
 -->
<!-- Title: G Pages: 1 -->
<svg width="230pt" height="625pt"
 viewBox="0.00 0.00 230.00 624.71" xmlns="http://www.w3.org/2000/svg" xmlns:xlink="http://www.w3.org/1999/xlink">
<g id="graph0" class="graph" transform="scale(1 1) rotate(0) translate(4 620.71)">
<title>G</title>
<polygon fill="white" stroke="transparent" points="-4,4 -4,-620.71 226,-620.71 226,4 -4,4"/>
<g id="clust1" class="cluster">
<title>cluster_level_0</title>
<polygon fill="none" stroke="#999999" stroke-dasharray="5,2" points="8,-513.77 8,-608.71 214,-608.71 214,-513.77 8,-513.77"/>
<text text-anchor="middle" x="111" y="-593.51" font-family="Helvetica,sans-Serif" font-size="14.00" fill="#999999">level 0</text>
</g>
<g id="clust2" class="cluster">
<title>cluster_level_1</title>
<polygon fill="none" stroke="#999999" stroke-dasharray="5,2" points="59,-421.52 59,-505.77 163,-505.77 163,-421.52 59,-421.52"/>
<text text-anchor="middle" x="111" y="-490.57" font-family="Helvetica,sans-Serif" font-size="14.00" fill="#999999">level 1</text>
</g>
<g id="clust3" class="cluster">
<title>cluster_level_2</title>
<polygon fill="none" stroke="#999999" stroke-dasharray="5,2" points="57,-338.52 57,-413.52 165,-413.52 165,-338.52 57,-338.52"/>
<text text-anchor="middle" x="111" y="-398.32" font-family="Helvetica,sans-Serif" font-size="14.00" fill="#999999">level 2</text>
</g>
<g id="clust4" class="cluster">
<title>cluster_level_3</title>
<polygon fill="none" stroke="#999999" stroke-dasharray="5,2" points="43,-255.52 43,-330.52 161,-330.52 161,-255.52 43,-255.52"/>
<text text-anchor="middle" x="102" y="-315.32" font-family="Helvetica,sans-Serif" font-size="14.00" fill="#999999">level 3</text>
</g>
<g id="clust5" class="cluster">
<title>cluster_level_4</title>
<polygon fill="none" stroke="#999999" stroke-dasharray="5,2" points="51,-110.94 51,-247.52 165,-247.52 165,-110.94 51,-110.94"/>
<text text-anchor="middle" x="108" y="-232.32" font-family="Helvetica,sans-Serif" font-size="14.00" fill="#999999">level 4</text>
</g>
<g id="clust6" class="cluster">
<title>cluster_level_5</title>
<polygon fill="none" stroke="#999999" stroke-dasharray="5,2" points="17,-8 17,-102.94 199,-102.94 199,-8 17,-8"/>
<text text-anchor="middle" x="108" y="-87.74" font-family="Helvetica,sans-Serif" font-size="14.00" fill="#999999">level 5</text>
</g>
<!-- linear_1 -->
<g id="node1" class="node">
<title>linear_1</title>
<polygon fill="#aed6f1" stroke="black" points="15.96,-541.11 111,-521.8 206.04,-541.11 205.95,-572.35 16.05,-572.35 15.96,-541.11"/>
<text text-anchor="middle" x="111" y="-552.94" font-family="Helvetica,sans-Serif" font-size="11.00">linear</text>
<text text-anchor="middle" x="111" y="-540.94" font-family="Helvetica,sans-Serif" font-size="11.00">[100.5K params]</text>
</g>
<!-- gelu_2 -->
<g id="node2" class="node">
<title>gelu_2</title>
<ellipse fill="#fdebd0" stroke="black" cx="111" cy="-452.15" rx="43.68" ry="22.76"/>
<text text-anchor="middle" x="111" y="-455.35" font-family="Helvetica,sans-Serif" font-size="11.00">gelu</text>
<text text-anchor="middle" x="111" y="-443.35" font-family="Helvetica,sans-Serif" font-size="11.00">#hidden</text>
</g>
<!-- linear_1&#45;&gt;gelu_2 -->
<g id="edge1" class="edge">
<title>linear_1&#45;&gt;gelu_2</title>
<path fill="none" stroke="#2c3e50" d="M111,-521.6C111,-510.28 111,-497.03 111,-485.23"/>
<polygon fill="#2c3e50" stroke="#2c3e50" points="114.5,-484.89 111,-474.89 107.5,-484.89 114.5,-484.89"/>
</g>
<!-- layernorm_3 -->
<g id="node3" class="node">
<title>layernorm_3</title>
<polygon fill="#d5f5e3" stroke="black" points="156.5,-382.52 65.5,-382.52 65.5,-346.52 156.5,-346.52 156.5,-382.52"/>
<text text-anchor="middle" x="111" y="-367.72" font-family="Helvetica,sans-Serif" font-size="11.00">layernorm</text>
<text text-anchor="middle" x="111" y="-355.72" font-family="Helvetica,sans-Serif" font-size="11.00">[256 params]</text>
</g>
<!-- gelu_2&#45;&gt;layernorm_3 -->
<g id="edge2" class="edge">
<title>gelu_2&#45;&gt;layernorm_3</title>
<path fill="none" stroke="#2c3e50" d="M111,-429.1C111,-418.02 111,-404.49 111,-392.77"/>
<polygon fill="#2c3e50" stroke="#2c3e50" points="114.5,-392.63 111,-382.63 107.5,-392.63 114.5,-392.63"/>
</g>
<!-- linear_4 -->
<g id="node4" class="node">
<title>linear_4</title>
<polygon fill="#eaecee" stroke="black" points="153,-299.52 51,-299.52 51,-263.52 153,-263.52 153,-299.52"/>
<text text-anchor="middle" x="102" y="-284.72" font-family="Helvetica,sans-Serif" font-size="11.00">linear</text>
<text text-anchor="middle" x="102" y="-272.72" font-family="Helvetica,sans-Serif" font-size="11.00">[16.5K params]</text>
</g>
<!-- layernorm_3&#45;&gt;linear_4 -->
<g id="edge3" class="edge">
<title>layernorm_3&#45;&gt;linear_4</title>
<path fill="none" stroke="#2c3e50" d="M109.09,-346.34C107.91,-335.71 106.37,-321.82 105.02,-309.72"/>
<polygon fill="#2c3e50" stroke="#2c3e50" points="108.49,-309.22 103.91,-299.67 101.53,-310 108.49,-309.22"/>
</g>
<!-- add_5 -->
<g id="node5" class="node">
<title>add_5</title>
<ellipse fill="#d5dbdb" stroke="black" cx="108" cy="-167.73" rx="48.58" ry="48.58"/>
<text text-anchor="middle" x="108" y="-170.93" font-family="Helvetica,sans-Serif" font-size="11.00">add</text>
<text text-anchor="middle" x="108" y="-158.93" font-family="Helvetica,sans-Serif" font-size="11.00">#residual</text>
</g>
<!-- layernorm_3&#45;&gt;add_5 -->
<g id="edge4" class="edge">
<title>layernorm_3&#45;&gt;add_5</title>
<path fill="none" stroke="#2c3e50" d="M150.22,-346.42C156.15,-342.1 161.45,-336.84 165,-330.52 181.31,-301.45 174.55,-287.45 165,-255.52 160.68,-241.06 153.09,-226.79 144.83,-214.11"/>
<polygon fill="#2c3e50" stroke="#2c3e50" points="147.57,-211.91 139.04,-205.61 141.78,-215.85 147.57,-211.91"/>
</g>
<!-- linear_4&#45;&gt;add_5 -->
<g id="edge5" class="edge">
<title>linear_4&#45;&gt;add_5</title>
<path fill="none" stroke="#2c3e50" d="M102.94,-263.05C103.47,-253.07 104.18,-239.92 104.89,-226.61"/>
<polygon fill="#2c3e50" stroke="#2c3e50" points="108.4,-226.64 105.44,-216.46 101.41,-226.26 108.4,-226.64"/>
</g>
<!-- linear_6 -->
<g id="node6" class="node">
<title>linear_6</title>
<polygon fill="#a9dfbf" stroke="black" points="191.07,-52.6 108,-71.91 24.93,-52.6 25.01,-21.37 190.99,-21.37 191.07,-52.6"/>
<text text-anchor="middle" x="108" y="-47.17" font-family="Helvetica,sans-Serif" font-size="11.00">linear</text>
<text text-anchor="middle" x="108" y="-35.17" font-family="Helvetica,sans-Serif" font-size="11.00">[1.3K params]</text>
</g>
<!-- add_5&#45;&gt;linear_6 -->
<g id="edge6" class="edge">
<title>add_5&#45;&gt;linear_6</title>
<path fill="none" stroke="#2c3e50" d="M108,-118.61C108,-106.49 108,-93.68 108,-82.19"/>
<polygon fill="#2c3e50" stroke="#2c3e50" points="111.5,-82.07 108,-72.07 104.5,-82.07 111.5,-82.07"/>
</g>
</g>
</svg>
