<?xml version="1.0" encoding="UTF-8" standalone="no"?>
<!DOCTYPE svg PUBLIC "-//W3C//DTD SVG 1.1//EN"
 "http://www.w3.org/Graphics/SVG/1.1/DTD/svg11.dtd">
<!-- Generated by graphviz version 2.43.0 (0)
 -->
<!-- Title: G Pages: 1 -->
<svg width="765pt" height="3936pt"
 viewBox="0.00 0.00 765.00 3936.41" xmlns="http://www.w3.org/2000/svg" xmlns:xlink="http://www.w3.org/1999/xlink">
<g id="graph0" class="graph" transform="scale(1 1) rotate(0) translate(4 3932.41)">
<title>G</title>
<polygon fill="white" stroke="transparent" points="-4,4 -4,-3932.41 761,-3932.41 761,4 -4,4"/>
<g id="clust1" class="cluster">
<title>cluster_level_0</title>
<polygon fill="none" stroke="#999999" stroke-dasharray="5,2" points="32,-3804.49 32,-3920.41 563,-3920.41 563,-3804.49 32,-3804.49"/>
<text text-anchor="middle" x="297.5" y="-3905.21" font-family="Helvetica,sans-Serif" font-size="14.00" fill="#999999">level 0</text>
</g>
<g id="clust2" class="cluster">
<title>cluster_level_1</title>
<polygon fill="none" stroke="#999999" stroke-dasharray="5,2" points="346,-3710.49 346,-3785.49 416,-3785.49 416,-3710.49 346,-3710.49"/>
<text text-anchor="middle" x="381" y="-3770.29" font-family="Helvetica,sans-Serif" font-size="14.00" fill="#999999">level 1</text>
</g>
<g id="clust3" class="cluster">
<title>cluster_level_2</title>
<polygon fill="none" stroke="#999999" stroke-dasharray="5,2" points="353,-3616.49 353,-3691.49 453,-3691.49 453,-3616.49 353,-3616.49"/>
<text text-anchor="middle" x="403" y="-3676.29" font-family="Helvetica,sans-Serif" font-size="14.00" fill="#999999">level 2</text>
</g>
<g id="clust4" class="cluster">
<title>cluster_level_3</title>
<polygon fill="none" stroke="#999999" stroke-dasharray="5,2" points="379,-3522.49 379,-3597.49 461,-3597.49 461,-3522.49 379,-3522.49"/>
<text text-anchor="middle" x="420" y="-3582.29" font-family="Helvetica,sans-Serif" font-size="14.00" fill="#999999">level 3</text>
</g>
<g id="clust5" class="cluster">
<title>cluster_level_4</title>
<polygon fill="none" stroke="#999999" stroke-dasharray="5,2" points="423,-3428.49 423,-3503.49 533,-3503.49 533,-3428.49 423,-3428.49"/>
<text text-anchor="middle" x="478" y="-3488.29" font-family="Helvetica,sans-Serif" font-size="14.00" fill="#999999">level 4</text>
</g>
<g id="clust6" class="cluster">
<title>cluster_level_5</title>
<polygon fill="none" stroke="#999999" stroke-dasharray="5,2" points="326,-3326.49 326,-3409.49 630,-3409.49 630,-3326.49 326,-3326.49"/>
<text text-anchor="middle" x="478" y="-3394.29" font-family="Helvetica,sans-Serif" font-size="14.00" fill="#999999">level 5</text>
</g>
<g id="clust7" class="cluster">
<title>cluster_level_6</title>
<polygon fill="none" stroke="#999999" stroke-dasharray="5,2" points="446,-3205.95 446,-3307.49 524,-3307.49 524,-3205.95 446,-3205.95"/>
<text text-anchor="middle" x="485" y="-3292.29" font-family="Helvetica,sans-Serif" font-size="14.00" fill="#999999">level 6</text>
</g>
<g id="clust8" class="cluster">
<title>cluster_level_7</title>
<polygon fill="none" stroke="#999999" stroke-dasharray="5,2" points="367,-3111.95 367,-3186.95 467,-3186.95 467,-3111.95 367,-3111.95"/>
<text text-anchor="middle" x="417" y="-3171.75" font-family="Helvetica,sans-Serif" font-size="14.00" fill="#999999">level 7</text>
</g>
<g id="clust9" class="cluster">
<title>cluster_level_8</title>
<polygon fill="none" stroke="#999999" stroke-dasharray="5,2" points="390,-3009.45 390,-3092.95 452,-3092.95 452,-3009.45 390,-3009.45"/>
<text text-anchor="middle" x="421" y="-3077.75" font-family="Helvetica,sans-Serif" font-size="14.00" fill="#999999">level 8</text>
</g>
<g id="clust10" class="cluster">
<title>cluster_level_9</title>
<polygon fill="none" stroke="#999999" stroke-dasharray="5,2" points="383,-2915.45 383,-2990.45 459,-2990.45 459,-2915.45 383,-2915.45"/>
<text text-anchor="middle" x="421" y="-2975.25" font-family="Helvetica,sans-Serif" font-size="14.00" fill="#999999">level 9</text>
</g>
<g id="clust11" class="cluster">
<title>cluster_level_10</title>
<polygon fill="none" stroke="#999999" stroke-dasharray="5,2" points="377,-2821.45 377,-2896.45 465,-2896.45 465,-2821.45 377,-2821.45"/>
<text text-anchor="middle" x="421" y="-2881.25" font-family="Helvetica,sans-Serif" font-size="14.00" fill="#999999">level 10</text>
</g>
<g id="clust12" class="cluster">
<title>cluster_level_11</title>
<polygon fill="none" stroke="#999999" stroke-dasharray="5,2" points="383,-2727.45 383,-2802.45 459,-2802.45 459,-2727.45 383,-2727.45"/>
<text text-anchor="middle" x="421" y="-2787.25" font-family="Helvetica,sans-Serif" font-size="14.00" fill="#999999">level 11</text>
</g>
<g id="clust13" class="cluster">
<title>cluster_level_12</title>
<polygon fill="none" stroke="#999999" stroke-dasharray="5,2" points="366,-2633.45 366,-2708.45 476,-2708.45 476,-2633.45 366,-2633.45"/>
<text text-anchor="middle" x="421" y="-2693.25" font-family="Helvetica,sans-Serif" font-size="14.00" fill="#999999">level 12</text>
</g>
<g id="clust14" class="cluster">
<title>cluster_level_13</title>
<polygon fill="none" stroke="#999999" stroke-dasharray="5,2" points="326,-2511.45 326,-2614.45 516,-2614.45 516,-2511.45 326,-2511.45"/>
<text text-anchor="middle" x="421" y="-2599.25" font-family="Helvetica,sans-Serif" font-size="14.00" fill="#999999">level 13</text>
</g>
<g id="clust15" class="cluster">
<title>cluster_level_14</title>
<polygon fill="none" stroke="#999999" stroke-dasharray="5,2" points="382,-2417.45 382,-2492.45 460,-2492.45 460,-2417.45 382,-2417.45"/>
<text text-anchor="middle" x="421" y="-2477.25" font-family="Helvetica,sans-Serif" font-size="14.00" fill="#999999">level 14</text>
</g>
<g id="clust16" class="cluster">
<title>cluster_level_15</title>
<polygon fill="none" stroke="#999999" stroke-dasharray="5,2" points="326,-2271.45 326,-2398.45 516,-2398.45 516,-2271.45 326,-2271.45"/>
<text text-anchor="middle" x="421" y="-2383.25" font-family="Helvetica,sans-Serif" font-size="14.00" fill="#999999">level 15</text>
</g>
<g id="clust17" class="cluster">
<title>cluster_level_16</title>
<polygon fill="none" stroke="#999999" stroke-dasharray="5,2" points="326,-2149.45 326,-2252.45 516,-2252.45 516,-2149.45 326,-2149.45"/>
<text text-anchor="middle" x="421" y="-2237.25" font-family="Helvetica,sans-Serif" font-size="14.00" fill="#999999">level 16</text>
</g>
<g id="clust18" class="cluster">
<title>cluster_level_17</title>
<polygon fill="none" stroke="#999999" stroke-dasharray="5,2" points="326,-2027.45 326,-2130.45 516,-2130.45 516,-2027.45 326,-2027.45"/>
<text text-anchor="middle" x="421" y="-2115.25" font-family="Helvetica,sans-Serif" font-size="14.00" fill="#999999">level 17</text>
</g>
<g id="clust19" class="cluster">
<title>cluster_level_18</title>
<polygon fill="none" stroke="#999999" stroke-dasharray="5,2" points="382,-1933.45 382,-2008.45 460,-2008.45 460,-1933.45 382,-1933.45"/>
<text text-anchor="middle" x="421" y="-1993.25" font-family="Helvetica,sans-Serif" font-size="14.00" fill="#999999">level 18</text>
</g>
<g id="clust20" class="cluster">
<title>cluster_level_19</title>
<polygon fill="none" stroke="#999999" stroke-dasharray="5,2" points="376,-1839.45 376,-1914.45 466,-1914.45 466,-1839.45 376,-1839.45"/>
<text text-anchor="middle" x="421" y="-1899.25" font-family="Helvetica,sans-Serif" font-size="14.00" fill="#999999">level 19</text>
</g>
<g id="clust21" class="cluster">
<title>cluster_level_20</title>
<polygon fill="none" stroke="#999999" stroke-dasharray="5,2" points="355,-1745.45 355,-1820.45 487,-1820.45 487,-1745.45 355,-1745.45"/>
<text text-anchor="middle" x="421" y="-1805.25" font-family="Helvetica,sans-Serif" font-size="14.00" fill="#999999">level 20</text>
</g>
<g id="clust22" class="cluster">
<title>cluster_level_21</title>
<polygon fill="none" stroke="#999999" stroke-dasharray="5,2" points="370,-1651.45 370,-1726.45 472,-1726.45 472,-1651.45 370,-1651.45"/>
<text text-anchor="middle" x="421" y="-1711.25" font-family="Helvetica,sans-Serif" font-size="14.00" fill="#999999">level 21</text>
</g>
<g id="clust23" class="cluster">
<title>cluster_level_22</title>
<polygon fill="none" stroke="#999999" stroke-dasharray="5,2" points="383,-1557.45 383,-1632.45 459,-1632.45 459,-1557.45 383,-1557.45"/>
<text text-anchor="middle" x="421" y="-1617.25" font-family="Helvetica,sans-Serif" font-size="14.00" fill="#999999">level 22</text>
</g>
<g id="clust24" class="cluster">
<title>cluster_level_23</title>
<polygon fill="none" stroke="#999999" stroke-dasharray="5,2" points="357,-1463.45 357,-1538.45 485,-1538.45 485,-1463.45 357,-1463.45"/>
<text text-anchor="middle" x="421" y="-1523.25" font-family="Helvetica,sans-Serif" font-size="14.00" fill="#999999">level 23</text>
</g>
<g id="clust25" class="cluster">
<title>cluster_level_24</title>
<polygon fill="none" stroke="#999999" stroke-dasharray="5,2" points="367,-1369.45 367,-1444.45 475,-1444.45 475,-1369.45 367,-1369.45"/>
<text text-anchor="middle" x="421" y="-1429.25" font-family="Helvetica,sans-Serif" font-size="14.00" fill="#999999">level 24</text>
</g>
<g id="clust26" class="cluster">
<title>cluster_level_25</title>
<polygon fill="none" stroke="#999999" stroke-dasharray="5,2" points="377,-1275.45 377,-1350.45 465,-1350.45 465,-1275.45 377,-1275.45"/>
<text text-anchor="middle" x="421" y="-1335.25" font-family="Helvetica,sans-Serif" font-size="14.00" fill="#999999">level 25</text>
</g>
<g id="clust27" class="cluster">
<title>cluster_level_26</title>
<polygon fill="none" stroke="#999999" stroke-dasharray="5,2" points="365,-1181.45 365,-1256.45 477,-1256.45 477,-1181.45 365,-1181.45"/>
<text text-anchor="middle" x="421" y="-1241.25" font-family="Helvetica,sans-Serif" font-size="14.00" fill="#999999">level 26</text>
</g>
<g id="clust28" class="cluster">
<title>cluster_level_27</title>
<polygon fill="none" stroke="#999999" stroke-dasharray="5,2" points="371,-1079.45 371,-1162.45 471,-1162.45 471,-1079.45 371,-1079.45"/>
<text text-anchor="middle" x="421" y="-1147.25" font-family="Helvetica,sans-Serif" font-size="14.00" fill="#999999">level 27</text>
</g>
<g id="clust29" class="cluster">
<title>cluster_level_28</title>
<polygon fill="none" stroke="#999999" stroke-dasharray="5,2" points="198,-957.45 198,-1060.45 396,-1060.45 396,-957.45 198,-957.45"/>
<text text-anchor="middle" x="297" y="-1045.25" font-family="Helvetica,sans-Serif" font-size="14.00" fill="#999999">level 28</text>
</g>
<g id="clust30" class="cluster">
<title>cluster_level_29</title>
<polygon fill="none" stroke="#999999" stroke-dasharray="5,2" points="198,-835.45 198,-938.45 396,-938.45 396,-835.45 198,-835.45"/>
<text text-anchor="middle" x="297" y="-923.25" font-family="Helvetica,sans-Serif" font-size="14.00" fill="#999999">level 29</text>
</g>
<g id="clust31" class="cluster">
<title>cluster_level_30</title>
<polygon fill="none" stroke="#999999" stroke-dasharray="5,2" points="131,-741.45 131,-816.45 219,-816.45 219,-741.45 131,-741.45"/>
<text text-anchor="middle" x="175" y="-801.25" font-family="Helvetica,sans-Serif" font-size="14.00" fill="#999999">level 30</text>
</g>
<g id="clust32" class="cluster">
<title>cluster_level_31</title>
<polygon fill="none" stroke="#999999" stroke-dasharray="5,2" points="125,-647.45 125,-722.45 225,-722.45 225,-647.45 125,-647.45"/>
<text text-anchor="middle" x="175" y="-707.25" font-family="Helvetica,sans-Serif" font-size="14.00" fill="#999999">level 31</text>
</g>
<g id="clust33" class="cluster">
<title>cluster_level_32</title>
<polygon fill="none" stroke="#999999" stroke-dasharray="5,2" points="125,-553.45 125,-628.45 225,-628.45 225,-553.45 125,-553.45"/>
<text text-anchor="middle" x="175" y="-613.25" font-family="Helvetica,sans-Serif" font-size="14.00" fill="#999999">level 32</text>
</g>
<g id="clust34" class="cluster">
<title>cluster_level_33</title>
<polygon fill="none" stroke="#999999" stroke-dasharray="5,2" points="104,-459.45 104,-534.45 246,-534.45 246,-459.45 104,-459.45"/>
<text text-anchor="middle" x="175" y="-519.25" font-family="Helvetica,sans-Serif" font-size="14.00" fill="#999999">level 33</text>
</g>
<g id="clust35" class="cluster">
<title>cluster_level_34</title>
<polygon fill="none" stroke="#999999" stroke-dasharray="5,2" points="125,-365.45 125,-440.45 225,-440.45 225,-365.45 125,-365.45"/>
<text text-anchor="middle" x="175" y="-425.25" font-family="Helvetica,sans-Serif" font-size="14.00" fill="#999999">level 34</text>
</g>
<g id="clust36" class="cluster">
<title>cluster_level_35</title>
<polygon fill="none" stroke="#999999" stroke-dasharray="5,2" points="13,-263.45 13,-346.45 246,-346.45 246,-263.45 13,-263.45"/>
<text text-anchor="middle" x="129.5" y="-331.25" font-family="Helvetica,sans-Serif" font-size="14.00" fill="#999999">level 35</text>
</g>
<g id="clust37" class="cluster">
<title>cluster_level_36</title>
<polygon fill="none" stroke="#999999" stroke-dasharray="5,2" points="50,-142.91 50,-244.45 128,-244.45 128,-142.91 50,-142.91"/>
<text text-anchor="middle" x="89" y="-229.25" font-family="Helvetica,sans-Serif" font-size="14.00" fill="#999999">level 36</text>
</g>
<g id="clust38" class="cluster">
<title>cluster_level_37</title>
<polygon fill="none" stroke="#999999" stroke-dasharray="5,2" points="8,-8 8,-123.91 170,-123.91 170,-8 8,-8"/>
<text text-anchor="middle" x="89" y="-108.71" font-family="Helvetica,sans-Serif" font-size="14.00" fill="#999999">level 37</text>
</g>
<!-- linear_1 -->
<g id="node1" class="node">
<title>linear_1</title>
<polygon fill="#aed6f1" stroke="black" points="272.66,-3839.08 346,-3812.53 419.34,-3839.08 419.27,-3882.03 272.73,-3882.03 272.66,-3839.08"/>
<text text-anchor="middle" x="346" y="-3860.15" font-family="Helvetica,sans-Serif" font-size="11.00">linear</text>
<text text-anchor="middle" x="346" y="-3848.15" font-family="Helvetica,sans-Serif" font-size="11.00">#input</text>
<text text-anchor="middle" x="346" y="-3836.15" font-family="Helvetica,sans-Serif" font-size="11.00">[24 params]</text>
</g>
<!-- gelu_3 -->
<g id="node4" class="node">
<title>gelu_3</title>
<ellipse fill="#fdebd0" stroke="black" cx="381" cy="-3736.49" rx="27" ry="18"/>
<text text-anchor="middle" x="381" y="-3733.69" font-family="Helvetica,sans-Serif" font-size="11.00">gelu</text>
</g>
<!-- linear_1&#45;&gt;gelu_3 -->
<g id="edge1" class="edge">
<title>linear_1&#45;&gt;gelu_3</title>
<path fill="none" stroke="#2c3e50" d="M356.5,-3816.21C361.72,-3799.44 367.93,-3779.47 372.8,-3763.84"/>
<polygon fill="#2c3e50" stroke="#2c3e50" points="376.15,-3764.87 375.78,-3754.28 369.46,-3762.79 376.15,-3764.87"/>
</g>
<!-- gate_32 -->
<g id="node33" class="node">
<title>gate_32</title>
<polygon fill="#f5cba7" stroke="black" points="297,-1029.45 206,-997.45 297,-965.45 388,-997.45 297,-1029.45"/>
<text text-anchor="middle" x="297" y="-1000.65" font-family="Helvetica,sans-Serif" font-size="11.00">gate</text>
<text text-anchor="middle" x="297" y="-988.65" font-family="Helvetica,sans-Serif" font-size="11.00">[162 params]</text>
</g>
<!-- linear_1&#45;&gt;gate_32 -->
<g id="edge34" class="edge">
<title>linear_1&#45;&gt;gate_32</title>
<path fill="none" stroke="#2980b9" stroke-dasharray="5,2" d="M325.96,-3819.32C313.56,-3797.45 300,-3766.81 300,-3737.49 300,-3737.49 300,-3737.49 300,-1108.45 300,-1085.57 299.34,-1060.03 298.64,-1039.31"/>
<polygon fill="#2980b9" stroke="#2980b9" points="302.14,-1039.14 298.29,-1029.27 295.14,-1039.38 302.14,-1039.14"/>
<text text-anchor="middle" x="312.5" y="-2441.25" font-family="Helvetica,sans-Serif" font-size="9.00" fill="#2980b9">input</text>
</g>
<!-- input_ctx_2 -->
<g id="node2" class="node">
<title>input_ctx_2</title>
<polygon fill="#aed6f1" stroke="black" points="437.38,-3842.32 496,-3823.01 554.62,-3842.32 554.57,-3873.55 437.43,-3873.55 437.38,-3842.32"/>
<text text-anchor="middle" x="496" y="-3854.15" font-family="Helvetica,sans-Serif" font-size="11.00">input_ctx</text>
<text text-anchor="middle" x="496" y="-3842.15" font-family="Helvetica,sans-Serif" font-size="11.00">#ctx</text>
</g>
<!-- context_blend_6 -->
<g id="node7" class="node">
<title>context_blend_6</title>
<polygon fill="#eaecee" stroke="black" points="525,-3472.49 431,-3472.49 431,-3436.49 525,-3436.49 525,-3472.49"/>
<text text-anchor="middle" x="478" y="-3451.69" font-family="Helvetica,sans-Serif" font-size="11.00">context_blend</text>
</g>
<!-- input_ctx_2&#45;&gt;context_blend_6 -->
<g id="edge5" class="edge">
<title>input_ctx_2&#45;&gt;context_blend_6</title>
<path fill="none" stroke="#2980b9" stroke-dasharray="5,2" d="M492.7,-3823.64C490.13,-3800.88 487,-3767.07 487,-3737.49 487,-3737.49 487,-3737.49 487,-3547.49 487,-3525.62 484.45,-3500.97 482.07,-3482.69"/>
<polygon fill="#2980b9" stroke="#2980b9" points="485.53,-3482.17 480.7,-3472.74 478.59,-3483.12 485.53,-3482.17"/>
<text text-anchor="middle" x="494.5" y="-3640.29" font-family="Helvetica,sans-Serif" font-size="9.00" fill="#2980b9">ctx</text>
</g>
<!-- state_read_memory_35 -->
<g id="node3" class="node">
<title>state_read_memory_35</title>
<polygon fill="#f9e79f" stroke="black" points="147,-3868.95 39.69,-3850.95 147,-3832.95 254.31,-3850.95 147,-3868.95"/>
<text text-anchor="middle" x="147" y="-3848.15" font-family="Helvetica,sans-Serif" font-size="11.00">state_read_memory</text>
</g>
<!-- state_add_34 -->
<g id="node35" class="node">
<title>state_add_34</title>
<polygon fill="#eaecee" stroke="black" points="210.5,-785.45 139.5,-785.45 139.5,-749.45 210.5,-749.45 210.5,-785.45"/>
<text text-anchor="middle" x="175" y="-770.65" font-family="Helvetica,sans-Serif" font-size="11.00">state_add</text>
<text text-anchor="middle" x="175" y="-758.65" font-family="Helvetica,sans-Serif" font-size="11.00">#memory</text>
</g>
<!-- state_read_memory_35&#45;&gt;state_add_34 -->
<g id="edge38" class="edge">
<title>state_read_memory_35&#45;&gt;state_add_34</title>
<path fill="none" stroke="#2980b9" stroke-dasharray="5,2" d="M148.94,-3833.21C151.3,-3811.26 155,-3771.55 155,-3737.49 155,-3737.49 155,-3737.49 155,-874.45 155,-847.22 161.45,-816.72 167.03,-795.45"/>
<polygon fill="#2980b9" stroke="#2980b9" points="170.48,-796.09 169.75,-785.53 163.73,-794.25 170.48,-796.09"/>
<text text-anchor="middle" x="174" y="-2321.25" font-family="Helvetica,sans-Serif" font-size="9.00" fill="#2980b9">memory</text>
</g>
<!-- layernorm_4 -->
<g id="node5" class="node">
<title>layernorm_4</title>
<polygon fill="#d5f5e3" stroke="black" points="445,-3660.49 361,-3660.49 361,-3624.49 445,-3624.49 445,-3660.49"/>
<text text-anchor="middle" x="403" y="-3645.69" font-family="Helvetica,sans-Serif" font-size="11.00">layernorm</text>
<text text-anchor="middle" x="403" y="-3633.69" font-family="Helvetica,sans-Serif" font-size="11.00">[16 params]</text>
</g>
<!-- gelu_3&#45;&gt;layernorm_4 -->
<g id="edge2" class="edge">
<title>gelu_3&#45;&gt;layernorm_4</title>
<path fill="none" stroke="#2c3e50" d="M385.04,-3718.62C388.24,-3705.21 392.79,-3686.21 396.5,-3670.67"/>
<polygon fill="#2c3e50" stroke="#2c3e50" points="399.99,-3671.11 398.92,-3660.57 393.19,-3669.48 399.99,-3671.11"/>
</g>
<!-- rmsnorm_5 -->
<g id="node6" class="node">
<title>rmsnorm_5</title>
<polygon fill="#d5f5e3" stroke="black" points="453,-3566.49 387,-3566.49 387,-3530.49 453,-3530.49 453,-3566.49"/>
<text text-anchor="middle" x="420" y="-3545.69" font-family="Helvetica,sans-Serif" font-size="11.00">rmsnorm</text>
</g>
<!-- layernorm_4&#45;&gt;rmsnorm_5 -->
<g id="edge3" class="edge">
<title>layernorm_4&#45;&gt;rmsnorm_5</title>
<path fill="none" stroke="#2c3e50" d="M406.2,-3624.19C408.67,-3610.82 412.13,-3592.08 414.97,-3576.71"/>
<polygon fill="#2c3e50" stroke="#2c3e50" points="418.44,-3577.19 416.82,-3566.72 411.56,-3575.92 418.44,-3577.19"/>
</g>
<!-- rmsnorm_5&#45;&gt;context_blend_6 -->
<g id="edge4" class="edge">
<title>rmsnorm_5&#45;&gt;context_blend_6</title>
<path fill="none" stroke="#2c3e50" d="M430.91,-3530.19C439.58,-3516.44 451.84,-3496.99 461.67,-3481.39"/>
<polygon fill="#2c3e50" stroke="#2c3e50" points="464.77,-3483.04 467.14,-3472.72 458.85,-3479.31 464.77,-3483.04"/>
</g>
<!-- graph_7 -->
<g id="node8" class="node">
<title>graph_7</title>
<polygon fill="#eaecee" stroke="black" points="418,-3378.49 334,-3378.49 334,-3334.49 418,-3334.49 418,-3378.49"/>
<text text-anchor="middle" x="376" y="-3365.69" font-family="Helvetica,sans-Serif" font-size="11.00">graph</text>
<text text-anchor="middle" x="376" y="-3353.69" font-family="Helvetica,sans-Serif" font-size="11.00">#spectral</text>
<text text-anchor="middle" x="376" y="-3341.69" font-family="Helvetica,sans-Serif" font-size="11.00">[72 params]</text>
</g>
<!-- context_blend_6&#45;&gt;graph_7 -->
<g id="edge6" class="edge">
<title>context_blend_6&#45;&gt;graph_7</title>
<path fill="none" stroke="#2c3e50" d="M457.31,-3436.32C447.9,-3428.34 436.72,-3418.61 427,-3409.49 419.12,-3402.1 410.81,-3393.84 403.24,-3386.12"/>
<polygon fill="#2c3e50" stroke="#2c3e50" points="405.44,-3383.37 395.96,-3378.64 400.42,-3388.25 405.44,-3383.37"/>
</g>
<!-- graph_8 -->
<g id="node9" class="node">
<title>graph_8</title>
<polygon fill="#eaecee" stroke="black" points="520,-3374.49 436,-3374.49 436,-3338.49 520,-3338.49 520,-3374.49"/>
<text text-anchor="middle" x="478" y="-3359.69" font-family="Helvetica,sans-Serif" font-size="11.00">graph</text>
<text text-anchor="middle" x="478" y="-3347.69" font-family="Helvetica,sans-Serif" font-size="11.00">[88 params]</text>
</g>
<!-- context_blend_6&#45;&gt;graph_8 -->
<g id="edge7" class="edge">
<title>context_blend_6&#45;&gt;graph_8</title>
<path fill="none" stroke="#2c3e50" d="M478,-3436.33C478,-3422 478,-3401.3 478,-3384.71"/>
<polygon fill="#2c3e50" stroke="#2c3e50" points="481.5,-3384.51 478,-3374.51 474.5,-3384.51 481.5,-3384.51"/>
</g>
<!-- graph_9 -->
<g id="node10" class="node">
<title>graph_9</title>
<polygon fill="#eaecee" stroke="black" points="622,-3374.49 538,-3374.49 538,-3338.49 622,-3338.49 622,-3374.49"/>
<text text-anchor="middle" x="580" y="-3359.69" font-family="Helvetica,sans-Serif" font-size="11.00">graph</text>
<text text-anchor="middle" x="580" y="-3347.69" font-family="Helvetica,sans-Serif" font-size="11.00">[88 params]</text>
</g>
<!-- context_blend_6&#45;&gt;graph_9 -->
<g id="edge8" class="edge">
<title>context_blend_6&#45;&gt;graph_9</title>
<path fill="none" stroke="#2c3e50" d="M498.69,-3436.32C508.1,-3428.34 519.28,-3418.61 529,-3409.49 538.27,-3400.79 548.13,-3390.91 556.68,-3382.11"/>
<polygon fill="#2c3e50" stroke="#2c3e50" points="559.39,-3384.34 563.81,-3374.71 554.35,-3379.48 559.39,-3384.34"/>
</g>
<!-- merge_10 -->
<g id="node11" class="node">
<title>merge_10</title>
<ellipse fill="#d5dbdb" stroke="black" cx="485" cy="-3245.22" rx="31.04" ry="31.04"/>
<text text-anchor="middle" x="485" y="-3242.42" font-family="Helvetica,sans-Serif" font-size="11.00">merge</text>
</g>
<!-- graph_8&#45;&gt;merge_10 -->
<g id="edge9" class="edge">
<title>graph_8&#45;&gt;merge_10</title>
<path fill="none" stroke="#2c3e50" d="M479.09,-3338.42C479.97,-3324.67 481.25,-3304.77 482.39,-3286.98"/>
<polygon fill="#2c3e50" stroke="#2c3e50" points="485.89,-3287.01 483.04,-3276.81 478.91,-3286.56 485.89,-3287.01"/>
</g>
<!-- graph_9&#45;&gt;merge_10 -->
<g id="edge10" class="edge">
<title>graph_9&#45;&gt;merge_10</title>
<path fill="none" stroke="#2c3e50" d="M552.41,-3338.34C543.67,-3332.12 534.38,-3324.61 527,-3316.49 517.95,-3306.53 509.85,-3294.33 503.23,-3282.9"/>
<polygon fill="#2c3e50" stroke="#2c3e50" points="506.18,-3280.99 498.26,-3273.96 500.06,-3284.4 506.18,-3280.99"/>
</g>
<!-- linear_11 -->
<g id="node12" class="node">
<title>linear_11</title>
<polygon fill="#eaecee" stroke="black" points="459,-3155.95 375,-3155.95 375,-3119.95 459,-3119.95 459,-3155.95"/>
<text text-anchor="middle" x="417" y="-3141.15" font-family="Helvetica,sans-Serif" font-size="11.00">linear</text>
<text text-anchor="middle" x="417" y="-3129.15" font-family="Helvetica,sans-Serif" font-size="11.00">[72 params]</text>
</g>
<!-- merge_10&#45;&gt;linear_11 -->
<g id="edge11" class="edge">
<title>merge_10&#45;&gt;linear_11</title>
<path fill="none" stroke="#2c3e50" d="M468.37,-3218.47C457.82,-3202.14 444.22,-3181.09 433.66,-3164.75"/>
<polygon fill="#2c3e50" stroke="#2c3e50" points="436.52,-3162.71 428.15,-3156.21 430.64,-3166.51 436.52,-3162.71"/>
</g>
<!-- add_12 -->
<g id="node13" class="node">
<title>add_12</title>
<ellipse fill="#d5dbdb" stroke="black" cx="421" cy="-3039.7" rx="22.5" ry="22.5"/>
<text text-anchor="middle" x="421" y="-3036.9" font-family="Helvetica,sans-Serif" font-size="11.00">add</text>
</g>
<!-- merge_10&#45;&gt;add_12 -->
<g id="edge12" class="edge">
<title>merge_10&#45;&gt;add_12</title>
<path fill="none" stroke="#2c3e50" d="M486.05,-3213.82C486.01,-3186.35 483.48,-3145.25 471,-3111.95 464.52,-3094.66 452.83,-3077.64 442.38,-3064.57"/>
<polygon fill="#2c3e50" stroke="#2c3e50" points="444.84,-3062.05 435.76,-3056.59 439.45,-3066.52 444.84,-3062.05"/>
</g>
<!-- linear_11&#45;&gt;add_12 -->
<g id="edge13" class="edge">
<title>linear_11&#45;&gt;add_12</title>
<path fill="none" stroke="#2c3e50" d="M417.72,-3119.75C418.26,-3106.65 419.02,-3088.27 419.68,-3072.52"/>
<polygon fill="#2c3e50" stroke="#2c3e50" points="423.19,-3072.28 420.11,-3062.14 416.2,-3071.99 423.19,-3072.28"/>
</g>
<!-- dropout_13 -->
<g id="node14" class="node">
<title>dropout_13</title>
<polygon fill="#eaecee" stroke="black" points="450.5,-2959.45 391.5,-2959.45 391.5,-2923.45 450.5,-2923.45 450.5,-2959.45"/>
<text text-anchor="middle" x="421" y="-2938.65" font-family="Helvetica,sans-Serif" font-size="11.00">dropout</text>
</g>
<!-- add_12&#45;&gt;dropout_13 -->
<g id="edge14" class="edge">
<title>add_12&#45;&gt;dropout_13</title>
<path fill="none" stroke="#2c3e50" d="M421,-3017.34C421,-3003.35 421,-2984.93 421,-2969.86"/>
<polygon fill="#2c3e50" stroke="#2c3e50" points="424.5,-2969.59 421,-2959.59 417.5,-2969.59 424.5,-2969.59"/>
</g>
<!-- softclamp_14 -->
<g id="node15" class="node">
<title>softclamp_14</title>
<polygon fill="#eaecee" stroke="black" points="456.5,-2865.45 385.5,-2865.45 385.5,-2829.45 456.5,-2829.45 456.5,-2865.45"/>
<text text-anchor="middle" x="421" y="-2844.65" font-family="Helvetica,sans-Serif" font-size="11.00">softclamp</text>
</g>
<!-- dropout_13&#45;&gt;softclamp_14 -->
<g id="edge15" class="edge">
<title>dropout_13&#45;&gt;softclamp_14</title>
<path fill="none" stroke="#2c3e50" d="M421,-2923.15C421,-2909.91 421,-2891.4 421,-2876.12"/>
<polygon fill="#2c3e50" stroke="#2c3e50" points="424.5,-2875.68 421,-2865.68 417.5,-2875.68 424.5,-2875.68"/>
</g>
<!-- softplus_15 -->
<g id="node16" class="node">
<title>softplus_15</title>
<polygon fill="#eaecee" stroke="black" points="451,-2771.45 391,-2771.45 391,-2735.45 451,-2735.45 451,-2771.45"/>
<text text-anchor="middle" x="421" y="-2750.65" font-family="Helvetica,sans-Serif" font-size="11.00">softplus</text>
</g>
<!-- softclamp_14&#45;&gt;softplus_15 -->
<g id="edge16" class="edge">
<title>softclamp_14&#45;&gt;softplus_15</title>
<path fill="none" stroke="#2c3e50" d="M421,-2829.15C421,-2815.91 421,-2797.4 421,-2782.12"/>
<polygon fill="#2c3e50" stroke="#2c3e50" points="424.5,-2781.68 421,-2771.68 417.5,-2781.68 424.5,-2781.68"/>
</g>
<!-- variance_gate_16 -->
<g id="node17" class="node">
<title>variance_gate_16</title>
<polygon fill="#eaecee" stroke="black" points="468,-2677.45 374,-2677.45 374,-2641.45 468,-2641.45 468,-2677.45"/>
<text text-anchor="middle" x="421" y="-2656.65" font-family="Helvetica,sans-Serif" font-size="11.00">variance_gate</text>
</g>
<!-- softplus_15&#45;&gt;variance_gate_16 -->
<g id="edge17" class="edge">
<title>softplus_15&#45;&gt;variance_gate_16</title>
<path fill="none" stroke="#2c3e50" d="M421,-2735.15C421,-2721.91 421,-2703.4 421,-2688.12"/>
<polygon fill="#2c3e50" stroke="#2c3e50" points="424.5,-2687.68 421,-2677.68 417.5,-2687.68 424.5,-2687.68"/>
</g>
<!-- map_17 -->
<g id="node18" class="node">
<title>map_17</title>
<polygon fill="#a9cce3" stroke="black" points="508.17,-2583.45 369.5,-2583.45 333.83,-2519.45 472.5,-2519.45 508.17,-2583.45"/>
<text text-anchor="middle" x="421" y="-2554.65" font-family="Helvetica,sans-Serif" font-size="11.00">map</text>
<text text-anchor="middle" x="421" y="-2542.65" font-family="Helvetica,sans-Serif" font-size="11.00">[10 params]</text>
</g>
<!-- variance_gate_16&#45;&gt;map_17 -->
<g id="edge18" class="edge">
<title>variance_gate_16&#45;&gt;map_17</title>
<path fill="none" stroke="#2c3e50" d="M421,-2641.42C421,-2628.53 421,-2610.26 421,-2593.63"/>
<polygon fill="#2c3e50" stroke="#2c3e50" points="424.5,-2593.55 421,-2583.55 417.5,-2593.55 424.5,-2593.55"/>
</g>
<!-- reshape_18 -->
<g id="node19" class="node">
<title>reshape_18</title>
<polygon fill="#eaecee" stroke="black" points="451.5,-2461.45 390.5,-2461.45 390.5,-2425.45 451.5,-2425.45 451.5,-2461.45"/>
<text text-anchor="middle" x="421" y="-2440.65" font-family="Helvetica,sans-Serif" font-size="11.00">reshape</text>
</g>
<!-- map_17&#45;&gt;reshape_18 -->
<g id="edge19" class="edge">
<title>map_17&#45;&gt;reshape_18</title>
<path fill="none" stroke="#2c3e50" d="M421,-2519.22C421,-2504.24 421,-2486.43 421,-2471.96"/>
<polygon fill="#2c3e50" stroke="#2c3e50" points="424.5,-2471.65 421,-2461.65 417.5,-2471.65 424.5,-2471.65"/>
</g>
<!-- map_19 -->
<g id="node20" class="node">
<title>map_19</title>
<polygon fill="#a9cce3" stroke="black" points="508.17,-2367.45 369.5,-2367.45 333.83,-2279.45 472.5,-2279.45 508.17,-2367.45"/>
<text text-anchor="middle" x="421" y="-2332.65" font-family="Helvetica,sans-Serif" font-size="11.00">map</text>
<text text-anchor="middle" x="421" y="-2320.65" font-family="Helvetica,sans-Serif" font-size="11.00">#halves</text>
<text text-anchor="middle" x="421" y="-2308.65" font-family="Helvetica,sans-Serif" font-size="11.00">[20 params]</text>
</g>
<!-- reshape_18&#45;&gt;map_19 -->
<g id="edge20" class="edge">
<title>reshape_18&#45;&gt;map_19</title>
<path fill="none" stroke="#2c3e50" d="M421,-2425.3C421,-2412.69 421,-2394.82 421,-2377.62"/>
<polygon fill="#2c3e50" stroke="#2c3e50" points="424.5,-2377.62 421,-2367.62 417.5,-2377.62 424.5,-2377.62"/>
</g>
<!-- map_20 -->
<g id="node21" class="node">
<title>map_20</title>
<polygon fill="#a9cce3" stroke="black" points="508.17,-2221.45 369.5,-2221.45 333.83,-2157.45 472.5,-2157.45 508.17,-2221.45"/>
<text text-anchor="middle" x="421" y="-2192.65" font-family="Helvetica,sans-Serif" font-size="11.00">map</text>
<text text-anchor="middle" x="421" y="-2180.65" font-family="Helvetica,sans-Serif" font-size="11.00">[20 params]</text>
</g>
<!-- map_19&#45;&gt;map_20 -->
<g id="edge21" class="edge">
<title>map_19&#45;&gt;map_20</title>
<path fill="none" stroke="#2c3e50" d="M421,-2279.23C421,-2263.96 421,-2246.83 421,-2231.72"/>
<polygon fill="#2c3e50" stroke="#2c3e50" points="424.5,-2231.64 421,-2221.64 417.5,-2231.64 424.5,-2231.64"/>
</g>
<!-- map_21 -->
<g id="node22" class="node">
<title>map_21</title>
<polygon fill="#a9cce3" stroke="black" points="508.17,-2099.45 369.5,-2099.45 333.83,-2035.45 472.5,-2035.45 508.17,-2099.45"/>
<text text-anchor="middle" x="421" y="-2070.65" font-family="Helvetica,sans-Serif" font-size="11.00">map</text>
<text text-anchor="middle" x="421" y="-2058.65" font-family="Helvetica,sans-Serif" font-size="11.00">[20 params]</text>
</g>
<!-- map_20&#45;&gt;map_21 -->
<g id="edge22" class="edge">
<title>map_20&#45;&gt;map_21</title>
<path fill="none" stroke="#2c3e50" d="M421,-2157.24C421,-2142.79 421,-2125.43 421,-2109.91"/>
<polygon fill="#2c3e50" stroke="#2c3e50" points="424.5,-2109.51 421,-2099.51 417.5,-2109.51 424.5,-2109.51"/>
</g>
<!-- reshape_22 -->
<g id="node23" class="node">
<title>reshape_22</title>
<polygon fill="#eaecee" stroke="black" points="451.5,-1977.45 390.5,-1977.45 390.5,-1941.45 451.5,-1941.45 451.5,-1977.45"/>
<text text-anchor="middle" x="421" y="-1956.65" font-family="Helvetica,sans-Serif" font-size="11.00">reshape</text>
</g>
<!-- map_21&#45;&gt;reshape_22 -->
<g id="edge23" class="edge">
<title>map_21&#45;&gt;reshape_22</title>
<path fill="none" stroke="#2c3e50" d="M421,-2035.22C421,-2020.24 421,-2002.43 421,-1987.96"/>
<polygon fill="#2c3e50" stroke="#2c3e50" points="424.5,-1987.65 421,-1977.65 417.5,-1987.65 424.5,-1987.65"/>
</g>
<!-- shape_ops_23 -->
<g id="node24" class="node">
<title>shape_ops_23</title>
<polygon fill="#eaecee" stroke="black" points="458,-1883.45 384,-1883.45 384,-1847.45 458,-1847.45 458,-1883.45"/>
<text text-anchor="middle" x="421" y="-1862.65" font-family="Helvetica,sans-Serif" font-size="11.00">shape_ops</text>
</g>
<!-- reshape_22&#45;&gt;shape_ops_23 -->
<g id="edge24" class="edge">
<title>reshape_22&#45;&gt;shape_ops_23</title>
<path fill="none" stroke="#2c3e50" d="M421,-1941.15C421,-1927.91 421,-1909.4 421,-1894.12"/>
<polygon fill="#2c3e50" stroke="#2c3e50" points="424.5,-1893.68 421,-1883.68 417.5,-1893.68 424.5,-1893.68"/>
</g>
<!-- neg_sigmoid_gate_24 -->
<g id="node25" class="node">
<title>neg_sigmoid_gate_24</title>
<polygon fill="#eaecee" stroke="black" points="478.5,-1789.45 363.5,-1789.45 363.5,-1753.45 478.5,-1753.45 478.5,-1789.45"/>
<text text-anchor="middle" x="421" y="-1768.65" font-family="Helvetica,sans-Serif" font-size="11.00">neg_sigmoid_gate</text>
</g>
<!-- shape_ops_23&#45;&gt;neg_sigmoid_gate_24 -->
<g id="edge25" class="edge">
<title>shape_ops_23&#45;&gt;neg_sigmoid_gate_24</title>
<path fill="none" stroke="#2c3e50" d="M421,-1847.15C421,-1833.91 421,-1815.4 421,-1800.12"/>
<polygon fill="#2c3e50" stroke="#2c3e50" points="424.5,-1799.68 421,-1789.68 417.5,-1799.68 424.5,-1799.68"/>
</g>
<!-- transpose_rt_25 -->
<g id="node26" class="node">
<title>transpose_rt_25</title>
<polygon fill="#eaecee" stroke="black" points="464,-1695.45 378,-1695.45 378,-1659.45 464,-1659.45 464,-1695.45"/>
<text text-anchor="middle" x="421" y="-1674.65" font-family="Helvetica,sans-Serif" font-size="11.00">transpose_rt</text>
</g>
<!-- neg_sigmoid_gate_24&#45;&gt;transpose_rt_25 -->
<g id="edge26" class="edge">
<title>neg_sigmoid_gate_24&#45;&gt;transpose_rt_25</title>
<path fill="none" stroke="#2c3e50" d="M421,-1753.15C421,-1739.91 421,-1721.4 421,-1706.12"/>
<polygon fill="#2c3e50" stroke="#2c3e50" points="424.5,-1705.68 421,-1695.68 417.5,-1705.68 424.5,-1705.68"/>
</g>
<!-- counter_26 -->
<g id="node27" class="node">
<title>counter_26</title>
<polygon fill="#eaecee" stroke="black" points="450.5,-1601.45 391.5,-1601.45 391.5,-1565.45 450.5,-1565.45 450.5,-1601.45"/>
<text text-anchor="middle" x="421" y="-1580.65" font-family="Helvetica,sans-Serif" font-size="11.00">counter</text>
</g>
<!-- transpose_rt_25&#45;&gt;counter_26 -->
<g id="edge27" class="edge">
<title>transpose_rt_25&#45;&gt;counter_26</title>
<path fill="none" stroke="#2c3e50" d="M421,-1659.15C421,-1645.91 421,-1627.4 421,-1612.12"/>
<polygon fill="#2c3e50" stroke="#2c3e50" points="424.5,-1611.68 421,-1601.68 417.5,-1611.68 424.5,-1611.68"/>
</g>
<!-- chunk_recombine_27 -->
<g id="node28" class="node">
<title>chunk_recombine_27</title>
<polygon fill="#eaecee" stroke="black" points="477,-1507.45 365,-1507.45 365,-1471.45 477,-1471.45 477,-1507.45"/>
<text text-anchor="middle" x="421" y="-1486.65" font-family="Helvetica,sans-Serif" font-size="11.00">chunk_recombine</text>
</g>
<!-- counter_26&#45;&gt;chunk_recombine_27 -->
<g id="edge28" class="edge">
<title>counter_26&#45;&gt;chunk_recombine_27</title>
<path fill="none" stroke="#2c3e50" d="M421,-1565.15C421,-1551.91 421,-1533.4 421,-1518.12"/>
<polygon fill="#2c3e50" stroke="#2c3e50" points="424.5,-1517.68 421,-1507.68 417.5,-1517.68 424.5,-1517.68"/>
</g>
<!-- attention_ops_28 -->
<g id="node29" class="node">
<title>attention_ops_28</title>
<polygon fill="#eaecee" stroke="black" points="467,-1413.45 375,-1413.45 375,-1377.45 467,-1377.45 467,-1413.45"/>
<text text-anchor="middle" x="421" y="-1392.65" font-family="Helvetica,sans-Serif" font-size="11.00">attention_ops</text>
</g>
<!-- chunk_recombine_27&#45;&gt;attention_ops_28 -->
<g id="edge29" class="edge">
<title>chunk_recombine_27&#45;&gt;attention_ops_28</title>
<path fill="none" stroke="#2c3e50" d="M421,-1471.15C421,-1457.91 421,-1439.4 421,-1424.12"/>
<polygon fill="#2c3e50" stroke="#2c3e50" points="424.5,-1423.68 421,-1413.68 417.5,-1423.68 424.5,-1423.68"/>
</g>
<!-- topk_filter_29 -->
<g id="node30" class="node">
<title>topk_filter_29</title>
<polygon fill="#eaecee" stroke="black" points="456.5,-1319.45 385.5,-1319.45 385.5,-1283.45 456.5,-1283.45 456.5,-1319.45"/>
<text text-anchor="middle" x="421" y="-1298.65" font-family="Helvetica,sans-Serif" font-size="11.00">topk_filter</text>
</g>
<!-- attention_ops_28&#45;&gt;topk_filter_29 -->
<g id="edge30" class="edge">
<title>attention_ops_28&#45;&gt;topk_filter_29</title>
<path fill="none" stroke="#2c3e50" d="M421,-1377.15C421,-1363.91 421,-1345.4 421,-1330.12"/>
<polygon fill="#2c3e50" stroke="#2c3e50" points="424.5,-1329.68 421,-1319.68 417.5,-1329.68 424.5,-1329.68"/>
</g>
<!-- repeat_narrow_30 -->
<g id="node31" class="node">
<title>repeat_narrow_30</title>
<polygon fill="#eaecee" stroke="black" points="469,-1225.45 373,-1225.45 373,-1189.45 469,-1189.45 469,-1225.45"/>
<text text-anchor="middle" x="421" y="-1204.65" font-family="Helvetica,sans-Serif" font-size="11.00">repeat_narrow</text>
</g>
<!-- topk_filter_29&#45;&gt;repeat_narrow_30 -->
<g id="edge31" class="edge">
<title>topk_filter_29&#45;&gt;repeat_narrow_30</title>
<path fill="none" stroke="#2c3e50" d="M421,-1283.15C421,-1269.91 421,-1251.4 421,-1236.12"/>
<polygon fill="#2c3e50" stroke="#2c3e50" points="424.5,-1235.68 421,-1225.68 417.5,-1235.68 424.5,-1235.68"/>
</g>
<!-- loop_31 -->
<g id="node32" class="node">
<title>loop_31</title>
<polygon fill="#d7bde2" stroke="black" points="463,-1131.45 383,-1131.45 379,-1127.45 379,-1087.45 459,-1087.45 463,-1091.45 463,-1131.45"/>
<polyline fill="none" stroke="black" points="459,-1127.45 379,-1127.45 "/>
<polyline fill="none" stroke="black" points="459,-1127.45 459,-1087.45 "/>
<polyline fill="none" stroke="black" points="459,-1127.45 463,-1131.45 "/>
<text text-anchor="middle" x="421" y="-1118.65" font-family="Helvetica,sans-Serif" font-size="11.00">loop</text>
<text text-anchor="middle" x="421" y="-1106.65" font-family="Helvetica,sans-Serif" font-size="11.00">#refined</text>
<text text-anchor="middle" x="421" y="-1094.65" font-family="Helvetica,sans-Serif" font-size="11.00">[88 params]</text>
</g>
<!-- repeat_narrow_30&#45;&gt;loop_31 -->
<g id="edge32" class="edge">
<title>repeat_narrow_30&#45;&gt;loop_31</title>
<path fill="none" stroke="#2c3e50" d="M421,-1189.29C421,-1176.15 421,-1157.65 421,-1141.87"/>
<polygon fill="#2c3e50" stroke="#2c3e50" points="424.5,-1141.49 421,-1131.49 417.5,-1141.49 424.5,-1141.49"/>
</g>
<!-- loop_31&#45;&gt;gate_32 -->
<g id="edge33" class="edge">
<title>loop_31&#45;&gt;gate_32</title>
<path fill="none" stroke="#2c3e50" d="M397.09,-1087.24C377.91,-1070.23 350.79,-1046.17 329.62,-1027.39"/>
<polygon fill="#2c3e50" stroke="#2c3e50" points="331.92,-1024.75 322.11,-1020.73 327.27,-1029.99 331.92,-1024.75"/>
</g>
<!-- switch_33 -->
<g id="node34" class="node">
<title>switch_33</title>
<polygon fill="#f5cba7" stroke="black" points="297,-907.45 206,-875.45 297,-843.45 388,-875.45 297,-907.45"/>
<text text-anchor="middle" x="297" y="-878.65" font-family="Helvetica,sans-Serif" font-size="11.00">switch</text>
<text text-anchor="middle" x="297" y="-866.65" font-family="Helvetica,sans-Serif" font-size="11.00">[160 params]</text>
</g>
<!-- loop_31&#45;&gt;switch_33 -->
<g id="edge36" class="edge">
<title>loop_31&#45;&gt;switch_33</title>
<path fill="none" stroke="#2980b9" stroke-dasharray="5,2" d="M422.82,-1087.35C424.47,-1056.64 423.73,-998.77 400,-957.45 386.31,-933.61 362.59,-914.23 341.36,-900.41"/>
<polygon fill="#2980b9" stroke="#2980b9" points="343.1,-897.37 332.76,-895.02 339.38,-903.3 343.1,-897.37"/>
<text text-anchor="middle" x="439.5" y="-995.25" font-family="Helvetica,sans-Serif" font-size="9.00" fill="#2980b9">refined</text>
</g>
<!-- gate_32&#45;&gt;switch_33 -->
<g id="edge35" class="edge">
<title>gate_32&#45;&gt;switch_33</title>
<path fill="none" stroke="#2c3e50" d="M297,-965.24C297,-950.79 297,-933.43 297,-917.91"/>
<polygon fill="#2c3e50" stroke="#2c3e50" points="300.5,-917.51 297,-907.51 293.5,-917.51 300.5,-917.51"/>
</g>
<!-- switch_33&#45;&gt;state_add_34 -->
<g id="edge37" class="edge">
<title>switch_33&#45;&gt;state_add_34</title>
<path fill="none" stroke="#2c3e50" d="M271.42,-852.23C251.32,-834.76 223.35,-810.46 202.71,-792.53"/>
<polygon fill="#2c3e50" stroke="#2c3e50" points="204.76,-789.67 194.91,-785.75 200.17,-794.96 204.76,-789.67"/>
</g>
<!-- loop_36 -->
<g id="node36" class="node">
<title>loop_36</title>
<polygon fill="#d7bde2" stroke="black" points="217,-691.45 137,-691.45 133,-687.45 133,-655.45 213,-655.45 217,-659.45 217,-691.45"/>
<polyline fill="none" stroke="black" points="213,-687.45 133,-687.45 "/>
<polyline fill="none" stroke="black" points="213,-687.45 213,-655.45 "/>
<polyline fill="none" stroke="black" points="213,-687.45 217,-691.45 "/>
<text text-anchor="middle" x="175" y="-676.65" font-family="Helvetica,sans-Serif" font-size="11.00">loop</text>
<text text-anchor="middle" x="175" y="-664.65" font-family="Helvetica,sans-Serif" font-size="11.00">[72 params]</text>
</g>
<!-- state_add_34&#45;&gt;loop_36 -->
<g id="edge39" class="edge">
<title>state_add_34&#45;&gt;loop_36</title>
<path fill="none" stroke="#2c3e50" d="M175,-749.15C175,-735.91 175,-717.4 175,-702.12"/>
<polygon fill="#2c3e50" stroke="#2c3e50" points="178.5,-701.68 175,-691.68 171.5,-701.68 178.5,-701.68"/>
</g>
<!-- state_read_state_add_34 -->
<g id="node44" class="node">
<title>state_read_state_add_34</title>
<ellipse fill="lightgrey" stroke="black" cx="665" cy="-3850.95" rx="92.01" ry="18"/>
<text text-anchor="middle" x="665" y="-3848.15" font-family="Helvetica,sans-Serif" font-size="11.00">state_read_state_add_34</text>
</g>
<!-- state_add_34&#45;&gt;state_read_state_add_34 -->
<g id="edge48" class="edge">
<title>state_add_34&#45;&gt;state_read_state_add_34</title>
<path fill="none" stroke="#e67e22" stroke-dasharray="1,5" d="M210.72,-770.39C258.92,-774.77 345.05,-789.02 400,-835.45 486.66,-908.68 464.07,-966.53 475,-1079.45 571.45,-2075.98 569.07,-2327.42 634,-3326.49 646.32,-3516.12 659.16,-3744.52 663.48,-3822.4"/>
<polygon fill="#e67e22" stroke="#e67e22" points="660.01,-3822.98 664.05,-3832.77 667,-3822.6 660.01,-3822.98"/>
<text text-anchor="middle" x="589.5" y="-2321.25" font-family="Helvetica,sans-Serif" font-size="9.00" fill="#e67e22">state</text>
</g>
<!-- loop_37 -->
<g id="node37" class="node">
<title>loop_37</title>
<polygon fill="#d7bde2" stroke="black" points="217,-597.45 137,-597.45 133,-593.45 133,-561.45 213,-561.45 217,-565.45 217,-597.45"/>
<polyline fill="none" stroke="black" points="213,-593.45 133,-593.45 "/>
<polyline fill="none" stroke="black" points="213,-593.45 213,-561.45 "/>
<polyline fill="none" stroke="black" points="213,-593.45 217,-597.45 "/>
<text text-anchor="middle" x="175" y="-582.65" font-family="Helvetica,sans-Serif" font-size="11.00">loop</text>
<text text-anchor="middle" x="175" y="-570.65" font-family="Helvetica,sans-Serif" font-size="11.00">[81 params]</text>
</g>
<!-- loop_36&#45;&gt;loop_37 -->
<g id="edge40" class="edge">
<title>loop_36&#45;&gt;loop_37</title>
<path fill="none" stroke="#2c3e50" d="M175,-655.15C175,-641.91 175,-623.4 175,-608.12"/>
<polygon fill="#2c3e50" stroke="#2c3e50" points="178.5,-607.68 175,-597.68 171.5,-607.68 178.5,-607.68"/>
</g>
<!-- log_softmax_reduce_38 -->
<g id="node38" class="node">
<title>log_softmax_reduce_38</title>
<polygon fill="#eaecee" stroke="black" points="238,-503.45 112,-503.45 112,-467.45 238,-467.45 238,-503.45"/>
<text text-anchor="middle" x="175" y="-482.65" font-family="Helvetica,sans-Serif" font-size="11.00">log_softmax_reduce</text>
</g>
<!-- loop_37&#45;&gt;log_softmax_reduce_38 -->
<g id="edge41" class="edge">
<title>loop_37&#45;&gt;log_softmax_reduce_38</title>
<path fill="none" stroke="#2c3e50" d="M175,-561.15C175,-547.91 175,-529.4 175,-514.12"/>
<polygon fill="#2c3e50" stroke="#2c3e50" points="178.5,-513.68 175,-503.68 171.5,-513.68 178.5,-513.68"/>
</g>
<!-- linear_39 -->
<g id="node39" class="node">
<title>linear_39</title>
<polygon fill="#eaecee" stroke="black" points="217,-409.45 133,-409.45 133,-373.45 217,-373.45 217,-409.45"/>
<text text-anchor="middle" x="175" y="-394.65" font-family="Helvetica,sans-Serif" font-size="11.00">linear</text>
<text text-anchor="middle" x="175" y="-382.65" font-family="Helvetica,sans-Serif" font-size="11.00">[16 params]</text>
</g>
<!-- log_softmax_reduce_38&#45;&gt;linear_39 -->
<g id="edge42" class="edge">
<title>log_softmax_reduce_38&#45;&gt;linear_39</title>
<path fill="none" stroke="#2c3e50" d="M175,-467.15C175,-453.91 175,-435.4 175,-420.12"/>
<polygon fill="#2c3e50" stroke="#2c3e50" points="178.5,-419.68 175,-409.68 171.5,-419.68 178.5,-419.68"/>
</g>
<!-- linear_40 -->
<g id="node40" class="node">
<title>linear_40</title>
<polygon fill="#eaecee" stroke="black" points="120.5,-315.45 21.5,-315.45 21.5,-271.45 120.5,-271.45 120.5,-315.45"/>
<text text-anchor="middle" x="71" y="-302.65" font-family="Helvetica,sans-Serif" font-size="11.00">linear</text>
<text text-anchor="middle" x="71" y="-290.65" font-family="Helvetica,sans-Serif" font-size="11.00">#final_heads_0</text>
<text text-anchor="middle" x="71" y="-278.65" font-family="Helvetica,sans-Serif" font-size="11.00">[72 params]</text>
</g>
<!-- linear_39&#45;&gt;linear_40 -->
<g id="edge43" class="edge">
<title>linear_39&#45;&gt;linear_40</title>
<path fill="none" stroke="#2c3e50" d="M156.41,-373.29C141.07,-359.13 119.01,-338.77 101.15,-322.29"/>
<polygon fill="#2c3e50" stroke="#2c3e50" points="103.51,-319.7 93.79,-315.49 98.76,-324.84 103.51,-319.7"/>
</g>
<!-- linear_41 -->
<g id="node41" class="node">
<title>linear_41</title>
<polygon fill="#eaecee" stroke="black" points="237.5,-315.45 138.5,-315.45 138.5,-271.45 237.5,-271.45 237.5,-315.45"/>
<text text-anchor="middle" x="188" y="-302.65" font-family="Helvetica,sans-Serif" font-size="11.00">linear</text>
<text text-anchor="middle" x="188" y="-290.65" font-family="Helvetica,sans-Serif" font-size="11.00">#final_heads_1</text>
<text text-anchor="middle" x="188" y="-278.65" font-family="Helvetica,sans-Serif" font-size="11.00">[72 params]</text>
</g>
<!-- linear_39&#45;&gt;linear_41 -->
<g id="edge44" class="edge">
<title>linear_39&#45;&gt;linear_41</title>
<path fill="none" stroke="#2c3e50" d="M177.32,-373.29C179.12,-360.02 181.66,-341.29 183.81,-325.42"/>
<polygon fill="#2c3e50" stroke="#2c3e50" points="187.28,-325.87 185.15,-315.49 180.34,-324.93 187.28,-325.87"/>
</g>
<!-- merge_42 -->
<g id="node42" class="node">
<title>merge_42</title>
<ellipse fill="#d5dbdb" stroke="black" cx="89" cy="-182.18" rx="31.04" ry="31.04"/>
<text text-anchor="middle" x="89" y="-179.38" font-family="Helvetica,sans-Serif" font-size="11.00">merge</text>
</g>
<!-- linear_40&#45;&gt;merge_42 -->
<g id="edge45" class="edge">
<title>linear_40&#45;&gt;merge_42</title>
<path fill="none" stroke="#2c3e50" d="M74.47,-271.39C76.72,-257.72 79.72,-239.49 82.42,-223.15"/>
<polygon fill="#2c3e50" stroke="#2c3e50" points="85.87,-223.71 84.04,-213.28 78.96,-222.58 85.87,-223.71"/>
</g>
<!-- linear_41&#45;&gt;merge_42 -->
<g id="edge46" class="edge">
<title>linear_41&#45;&gt;merge_42</title>
<path fill="none" stroke="#2c3e50" d="M168.91,-271.39C154.06,-255 133.26,-232.03 116.6,-213.64"/>
<polygon fill="#2c3e50" stroke="#2c3e50" points="119.05,-211.13 109.74,-206.07 113.86,-215.83 119.05,-211.13"/>
</g>
<!-- linear_43 -->
<g id="node43" class="node">
<title>linear_43</title>
<polygon fill="#a9dfbf" stroke="black" points="162.34,-66.33 89,-92.87 15.66,-66.33 15.73,-23.38 162.27,-23.38 162.34,-66.33"/>
<text text-anchor="middle" x="89" y="-63.66" font-family="Helvetica,sans-Serif" font-size="11.00">linear</text>
<text text-anchor="middle" x="89" y="-51.66" font-family="Helvetica,sans-Serif" font-size="11.00">#output</text>
<text text-anchor="middle" x="89" y="-39.66" font-family="Helvetica,sans-Serif" font-size="11.00">[18 params]</text>
</g>
<!-- merge_42&#45;&gt;linear_43 -->
<g id="edge47" class="edge">
<title>merge_42&#45;&gt;linear_43</title>
<path fill="none" stroke="#2c3e50" d="M89,-150.75C89,-136.56 89,-119.34 89,-103.46"/>
<polygon fill="#2c3e50" stroke="#2c3e50" points="92.5,-103.26 89,-93.26 85.5,-103.26 92.5,-103.26"/>
</g>
</g>
</svg>
